ISO-10303-21;
HEADER;
/* Generated by software containing ST-Developer
 * from STEP Tools, Inc. (www.steptools.com) 
 */

FILE_DESCRIPTION(
/* description */ (''),
/* implementation_level */ '2;1');

FILE_NAME(
/* name */ 'pinkie_lipo_bracket.step',
/* time_stamp */ '2026-05-14T14:50:22+02:00',
/* author */ (''),
/* organization */ (''),
/* preprocessor_version */ 'ST-DEVELOPER v20.1',
/* originating_system */ 'Autodesk Translation Framework v15.8.0.0',
/* authorisation */ '');

FILE_SCHEMA (('AUTOMOTIVE_DESIGN { 1 0 10303 214 3 1 1 }'));
ENDSEC;

DATA;
#10=MECHANICAL_DESIGN_GEOMETRIC_PRESENTATION_REPRESENTATION('',(#13),#2200);
#11=SHAPE_REPRESENTATION_RELATIONSHIP('SRR','None',#2207,#12);
#12=ADVANCED_BREP_SHAPE_REPRESENTATION('',(#14),#2199);
#13=STYLED_ITEM('',(#2217),#14);
#14=MANIFOLD_SOLID_BREP('Body1',#1284);
#15=FACE_BOUND('',#124,.T.);
#16=FACE_BOUND('',#125,.T.);
#17=FACE_BOUND('',#127,.T.);
#18=FACE_BOUND('',#128,.T.);
#19=FACE_BOUND('',#129,.T.);
#20=PLANE('',#1301);
#21=PLANE('',#1309);
#22=PLANE('',#1312);
#23=PLANE('',#1319);
#24=PLANE('',#1348);
#25=PLANE('',#1378);
#26=PLANE('',#1381);
#27=PLANE('',#1383);
#28=PLANE('',#1385);
#29=PLANE('',#1387);
#30=PLANE('',#1389);
#31=PLANE('',#1391);
#32=PLANE('',#1393);
#33=PLANE('',#1395);
#34=PLANE('',#1401);
#35=PLANE('',#1403);
#36=PLANE('',#1405);
#37=PLANE('',#1407);
#38=PLANE('',#1410);
#39=PLANE('',#1413);
#40=PLANE('',#1415);
#41=PLANE('',#1416);
#42=PLANE('',#1417);
#43=PLANE('',#1419);
#44=PLANE('',#1421);
#45=PLANE('',#1423);
#46=PLANE('',#1424);
#47=PLANE('',#1425);
#48=PLANE('',#1426);
#49=PLANE('',#1428);
#50=FACE_OUTER_BOUND('',#114,.T.);
#51=FACE_OUTER_BOUND('',#115,.T.);
#52=FACE_OUTER_BOUND('',#116,.T.);
#53=FACE_OUTER_BOUND('',#117,.T.);
#54=FACE_OUTER_BOUND('',#118,.T.);
#55=FACE_OUTER_BOUND('',#119,.T.);
#56=FACE_OUTER_BOUND('',#120,.T.);
#57=FACE_OUTER_BOUND('',#121,.T.);
#58=FACE_OUTER_BOUND('',#122,.T.);
#59=FACE_OUTER_BOUND('',#123,.T.);
#60=FACE_OUTER_BOUND('',#126,.T.);
#61=FACE_OUTER_BOUND('',#130,.T.);
#62=FACE_OUTER_BOUND('',#131,.T.);
#63=FACE_OUTER_BOUND('',#132,.T.);
#64=FACE_OUTER_BOUND('',#133,.T.);
#65=FACE_OUTER_BOUND('',#134,.T.);
#66=FACE_OUTER_BOUND('',#135,.T.);
#67=FACE_OUTER_BOUND('',#136,.T.);
#68=FACE_OUTER_BOUND('',#137,.T.);
#69=FACE_OUTER_BOUND('',#138,.T.);
#70=FACE_OUTER_BOUND('',#139,.T.);
#71=FACE_OUTER_BOUND('',#140,.T.);
#72=FACE_OUTER_BOUND('',#141,.T.);
#73=FACE_OUTER_BOUND('',#142,.T.);
#74=FACE_OUTER_BOUND('',#143,.T.);
#75=FACE_OUTER_BOUND('',#144,.T.);
#76=FACE_OUTER_BOUND('',#145,.T.);
#77=FACE_OUTER_BOUND('',#146,.T.);
#78=FACE_OUTER_BOUND('',#147,.T.);
#79=FACE_OUTER_BOUND('',#148,.T.);
#80=FACE_OUTER_BOUND('',#149,.T.);
#81=FACE_OUTER_BOUND('',#150,.T.);
#82=FACE_OUTER_BOUND('',#151,.T.);
#83=FACE_OUTER_BOUND('',#152,.T.);
#84=FACE_OUTER_BOUND('',#153,.T.);
#85=FACE_OUTER_BOUND('',#154,.T.);
#86=FACE_OUTER_BOUND('',#155,.T.);
#87=FACE_OUTER_BOUND('',#156,.T.);
#88=FACE_OUTER_BOUND('',#157,.T.);
#89=FACE_OUTER_BOUND('',#158,.T.);
#90=FACE_OUTER_BOUND('',#159,.T.);
#91=FACE_OUTER_BOUND('',#160,.T.);
#92=FACE_OUTER_BOUND('',#161,.T.);
#93=FACE_OUTER_BOUND('',#162,.T.);
#94=FACE_OUTER_BOUND('',#163,.T.);
#95=FACE_OUTER_BOUND('',#164,.T.);
#96=FACE_OUTER_BOUND('',#165,.T.);
#97=FACE_OUTER_BOUND('',#166,.T.);
#98=FACE_OUTER_BOUND('',#167,.T.);
#99=FACE_OUTER_BOUND('',#168,.T.);
#100=FACE_OUTER_BOUND('',#169,.T.);
#101=FACE_OUTER_BOUND('',#170,.T.);
#102=FACE_OUTER_BOUND('',#171,.T.);
#103=FACE_OUTER_BOUND('',#172,.T.);
#104=FACE_OUTER_BOUND('',#173,.T.);
#105=FACE_OUTER_BOUND('',#174,.T.);
#106=FACE_OUTER_BOUND('',#175,.T.);
#107=FACE_OUTER_BOUND('',#176,.T.);
#108=FACE_OUTER_BOUND('',#177,.T.);
#109=FACE_OUTER_BOUND('',#178,.T.);
#110=FACE_OUTER_BOUND('',#179,.T.);
#111=FACE_OUTER_BOUND('',#180,.T.);
#112=FACE_OUTER_BOUND('',#181,.T.);
#113=FACE_OUTER_BOUND('',#182,.T.);
#114=EDGE_LOOP('',(#808,#809,#810,#811));
#115=EDGE_LOOP('',(#812,#813,#814,#815,#816,#817,#818,#819,#820,#821));
#116=EDGE_LOOP('',(#822,#823,#824,#825));
#117=EDGE_LOOP('',(#826,#827,#828,#829));
#118=EDGE_LOOP('',(#830,#831,#832,#833,#834,#835,#836,#837,#838,#839));
#119=EDGE_LOOP('',(#840,#841,#842,#843));
#120=EDGE_LOOP('',(#844,#845,#846,#847));
#121=EDGE_LOOP('',(#848,#849,#850,#851));
#122=EDGE_LOOP('',(#852,#853,#854,#855));
#123=EDGE_LOOP('',(#856,#857,#858,#859,#860,#861,#862,#863,#864,#865,#866,
#867,#868,#869,#870,#871,#872,#873,#874,#875,#876,#877,#878,#879,#880,#881,
#882,#883,#884,#885,#886,#887,#888));
#124=EDGE_LOOP('',(#889,#890,#891,#892,#893,#894,#895,#896,#897,#898,#899,
#900,#901,#902,#903,#904,#905,#906,#907,#908));
#125=EDGE_LOOP('',(#909,#910,#911,#912,#913,#914,#915,#916));
#126=EDGE_LOOP('',(#917,#918,#919,#920,#921,#922,#923,#924,#925,#926,#927,
#928,#929,#930,#931,#932,#933,#934,#935,#936,#937,#938,#939,#940,#941,#942,
#943,#944,#945,#946,#947,#948,#949));
#127=EDGE_LOOP('',(#950,#951,#952,#953,#954,#955,#956,#957));
#128=EDGE_LOOP('',(#958,#959,#960,#961,#962,#963,#964,#965));
#129=EDGE_LOOP('',(#966,#967,#968,#969,#970,#971,#972,#973));
#130=EDGE_LOOP('',(#974,#975,#976,#977));
#131=EDGE_LOOP('',(#978,#979,#980,#981));
#132=EDGE_LOOP('',(#982,#983,#984,#985));
#133=EDGE_LOOP('',(#986,#987,#988,#989));
#134=EDGE_LOOP('',(#990,#991,#992,#993));
#135=EDGE_LOOP('',(#994,#995,#996,#997));
#136=EDGE_LOOP('',(#998,#999,#1000,#1001));
#137=EDGE_LOOP('',(#1002,#1003,#1004,#1005));
#138=EDGE_LOOP('',(#1006,#1007,#1008,#1009));
#139=EDGE_LOOP('',(#1010,#1011,#1012,#1013));
#140=EDGE_LOOP('',(#1014,#1015,#1016,#1017));
#141=EDGE_LOOP('',(#1018,#1019,#1020,#1021));
#142=EDGE_LOOP('',(#1022,#1023,#1024,#1025));
#143=EDGE_LOOP('',(#1026,#1027,#1028,#1029));
#144=EDGE_LOOP('',(#1030,#1031,#1032,#1033));
#145=EDGE_LOOP('',(#1034,#1035,#1036,#1037));
#146=EDGE_LOOP('',(#1038,#1039,#1040,#1041));
#147=EDGE_LOOP('',(#1042,#1043,#1044,#1045));
#148=EDGE_LOOP('',(#1046,#1047,#1048,#1049));
#149=EDGE_LOOP('',(#1050,#1051,#1052,#1053));
#150=EDGE_LOOP('',(#1054,#1055,#1056,#1057));
#151=EDGE_LOOP('',(#1058,#1059,#1060,#1061));
#152=EDGE_LOOP('',(#1062,#1063,#1064,#1065));
#153=EDGE_LOOP('',(#1066,#1067,#1068,#1069));
#154=EDGE_LOOP('',(#1070,#1071,#1072,#1073));
#155=EDGE_LOOP('',(#1074,#1075,#1076,#1077));
#156=EDGE_LOOP('',(#1078,#1079,#1080,#1081));
#157=EDGE_LOOP('',(#1082,#1083,#1084,#1085));
#158=EDGE_LOOP('',(#1086,#1087,#1088,#1089));
#159=EDGE_LOOP('',(#1090,#1091,#1092,#1093));
#160=EDGE_LOOP('',(#1094,#1095,#1096,#1097));
#161=EDGE_LOOP('',(#1098,#1099,#1100,#1101));
#162=EDGE_LOOP('',(#1102,#1103,#1104,#1105));
#163=EDGE_LOOP('',(#1106,#1107,#1108,#1109));
#164=EDGE_LOOP('',(#1110,#1111,#1112,#1113));
#165=EDGE_LOOP('',(#1114,#1115,#1116,#1117));
#166=EDGE_LOOP('',(#1118,#1119,#1120,#1121));
#167=EDGE_LOOP('',(#1122,#1123,#1124,#1125));
#168=EDGE_LOOP('',(#1126,#1127,#1128,#1129));
#169=EDGE_LOOP('',(#1130,#1131,#1132,#1133));
#170=EDGE_LOOP('',(#1134,#1135,#1136,#1137));
#171=EDGE_LOOP('',(#1138,#1139,#1140,#1141));
#172=EDGE_LOOP('',(#1142,#1143,#1144,#1145));
#173=EDGE_LOOP('',(#1146,#1147,#1148,#1149));
#174=EDGE_LOOP('',(#1150,#1151,#1152,#1153));
#175=EDGE_LOOP('',(#1154,#1155,#1156,#1157));
#176=EDGE_LOOP('',(#1158,#1159,#1160,#1161));
#177=EDGE_LOOP('',(#1162,#1163,#1164,#1165));
#178=EDGE_LOOP('',(#1166,#1167,#1168,#1169));
#179=EDGE_LOOP('',(#1170,#1171,#1172,#1173));
#180=EDGE_LOOP('',(#1174,#1175,#1176,#1177));
#181=EDGE_LOOP('',(#1178,#1179,#1180,#1181));
#182=EDGE_LOOP('',(#1182,#1183,#1184,#1185));
#183=LINE('',#1823,#304);
#184=LINE('',#1826,#305);
#185=LINE('',#1831,#306);
#186=LINE('',#1837,#307);
#187=LINE('',#1839,#308);
#188=LINE('',#1841,#309);
#189=LINE('',#1843,#310);
#190=LINE('',#1844,#311);
#191=LINE('',#1848,#312);
#192=LINE('',#1851,#313);
#193=LINE('',#1854,#314);
#194=LINE('',#1857,#315);
#195=LINE('',#1859,#316);
#196=LINE('',#1861,#317);
#197=LINE('',#1863,#318);
#198=LINE('',#1864,#319);
#199=LINE('',#1867,#320);
#200=LINE('',#1869,#321);
#201=LINE('',#1876,#322);
#202=LINE('',#1879,#323);
#203=LINE('',#1884,#324);
#204=LINE('',#1890,#325);
#205=LINE('',#1894,#326);
#206=LINE('',#1902,#327);
#207=LINE('',#1906,#328);
#208=LINE('',#1908,#329);
#209=LINE('',#1912,#330);
#210=LINE('',#1916,#331);
#211=LINE('',#1920,#332);
#212=LINE('',#1924,#333);
#213=LINE('',#1928,#334);
#214=LINE('',#1932,#335);
#215=LINE('',#1934,#336);
#216=LINE('',#1940,#337);
#217=LINE('',#1944,#338);
#218=LINE('',#1947,#339);
#219=LINE('',#1951,#340);
#220=LINE('',#1955,#341);
#221=LINE('',#1959,#342);
#222=LINE('',#1964,#343);
#223=LINE('',#1968,#344);
#224=LINE('',#1972,#345);
#225=LINE('',#1976,#346);
#226=LINE('',#1980,#347);
#227=LINE('',#1984,#348);
#228=LINE('',#1988,#349);
#229=LINE('',#1992,#350);
#230=LINE('',#1996,#351);
#231=LINE('',#2000,#352);
#232=LINE('',#2006,#353);
#233=LINE('',#2008,#354);
#234=LINE('',#2012,#355);
#235=LINE('',#2016,#356);
#236=LINE('',#2020,#357);
#237=LINE('',#2024,#358);
#238=LINE('',#2028,#359);
#239=LINE('',#2032,#360);
#240=LINE('',#2034,#361);
#241=LINE('',#2038,#362);
#242=LINE('',#2046,#363);
#243=LINE('',#2050,#364);
#244=LINE('',#2056,#365);
#245=LINE('',#2060,#366);
#246=LINE('',#2064,#367);
#247=LINE('',#2067,#368);
#248=LINE('',#2071,#369);
#249=LINE('',#2075,#370);
#250=LINE('',#2079,#371);
#251=LINE('',#2086,#372);
#252=LINE('',#2090,#373);
#253=LINE('',#2093,#374);
#254=LINE('',#2095,#375);
#255=LINE('',#2096,#376);
#256=LINE('',#2098,#377);
#257=LINE('',#2100,#378);
#258=LINE('',#2101,#379);
#259=LINE('',#2103,#380);
#260=LINE('',#2104,#381);
#261=LINE('',#2106,#382);
#262=LINE('',#2108,#383);
#263=LINE('',#2109,#384);
#264=LINE('',#2111,#385);
#265=LINE('',#2113,#386);
#266=LINE('',#2114,#387);
#267=LINE('',#2116,#388);
#268=LINE('',#2118,#389);
#269=LINE('',#2119,#390);
#270=LINE('',#2122,#391);
#271=LINE('',#2123,#392);
#272=LINE('',#2125,#393);
#273=LINE('',#2127,#394);
#274=LINE('',#2129,#395);
#275=LINE('',#2131,#396);
#276=LINE('',#2133,#397);
#277=LINE('',#2135,#398);
#278=LINE('',#2138,#399);
#279=LINE('',#2139,#400);
#280=LINE('',#2141,#401);
#281=LINE('',#2143,#402);
#282=LINE('',#2144,#403);
#283=LINE('',#2146,#404);
#284=LINE('',#2148,#405);
#285=LINE('',#2149,#406);
#286=LINE('',#2152,#407);
#287=LINE('',#2153,#408);
#288=LINE('',#2155,#409);
#289=LINE('',#2157,#410);
#290=LINE('',#2158,#411);
#291=LINE('',#2161,#412);
#292=LINE('',#2165,#413);
#293=LINE('',#2167,#414);
#294=LINE('',#2169,#415);
#295=LINE('',#2171,#416);
#296=LINE('',#2172,#417);
#297=LINE('',#2175,#418);
#298=LINE('',#2180,#419);
#299=LINE('',#2184,#420);
#300=LINE('',#2186,#421);
#301=LINE('',#2191,#422);
#302=LINE('',#2193,#423);
#303=LINE('',#2195,#424);
#304=VECTOR('',#1436,1.);
#305=VECTOR('',#1439,1.);
#306=VECTOR('',#1444,10.);
#307=VECTOR('',#1449,10.);
#308=VECTOR('',#1450,10.);
#309=VECTOR('',#1451,10.);
#310=VECTOR('',#1452,10.);
#311=VECTOR('',#1453,10.);
#312=VECTOR('',#1458,10.);
#313=VECTOR('',#1461,1.);
#314=VECTOR('',#1464,1.);
#315=VECTOR('',#1467,10.);
#316=VECTOR('',#1468,10.);
#317=VECTOR('',#1469,10.);
#318=VECTOR('',#1470,10.);
#319=VECTOR('',#1471,10.);
#320=VECTOR('',#1474,10.);
#321=VECTOR('',#1477,10.);
#322=VECTOR('',#1484,2.99999999999999);
#323=VECTOR('',#1487,2.99999999999999);
#324=VECTOR('',#1492,10.);
#325=VECTOR('',#1499,10.);
#326=VECTOR('',#1502,10.);
#327=VECTOR('',#1509,10.);
#328=VECTOR('',#1512,10.);
#329=VECTOR('',#1513,10.);
#330=VECTOR('',#1516,10.);
#331=VECTOR('',#1519,10.);
#332=VECTOR('',#1522,10.);
#333=VECTOR('',#1525,10.);
#334=VECTOR('',#1528,10.);
#335=VECTOR('',#1531,10.);
#336=VECTOR('',#1532,10.);
#337=VECTOR('',#1537,10.);
#338=VECTOR('',#1540,10.);
#339=VECTOR('',#1543,10.);
#340=VECTOR('',#1546,10.);
#341=VECTOR('',#1549,10.);
#342=VECTOR('',#1552,10.);
#343=VECTOR('',#1557,10.);
#344=VECTOR('',#1560,10.);
#345=VECTOR('',#1563,10.);
#346=VECTOR('',#1566,10.);
#347=VECTOR('',#1569,10.);
#348=VECTOR('',#1572,10.);
#349=VECTOR('',#1575,10.);
#350=VECTOR('',#1580,10.);
#351=VECTOR('',#1583,10.);
#352=VECTOR('',#1586,10.);
#353=VECTOR('',#1591,10.);
#354=VECTOR('',#1592,10.);
#355=VECTOR('',#1595,10.);
#356=VECTOR('',#1598,10.);
#357=VECTOR('',#1601,10.);
#358=VECTOR('',#1604,10.);
#359=VECTOR('',#1607,10.);
#360=VECTOR('',#1610,10.);
#361=VECTOR('',#1611,10.);
#362=VECTOR('',#1614,10.);
#363=VECTOR('',#1621,10.);
#364=VECTOR('',#1624,10.);
#365=VECTOR('',#1629,10.);
#366=VECTOR('',#1632,10.);
#367=VECTOR('',#1635,10.);
#368=VECTOR('',#1638,10.);
#369=VECTOR('',#1641,10.);
#370=VECTOR('',#1644,10.);
#371=VECTOR('',#1647,10.);
#372=VECTOR('',#1654,10.);
#373=VECTOR('',#1657,10.);
#374=VECTOR('',#1660,10.);
#375=VECTOR('',#1663,10.);
#376=VECTOR('',#1664,10.);
#377=VECTOR('',#1667,10.);
#378=VECTOR('',#1670,10.);
#379=VECTOR('',#1671,10.);
#380=VECTOR('',#1674,10.);
#381=VECTOR('',#1675,10.);
#382=VECTOR('',#1678,10.);
#383=VECTOR('',#1681,10.);
#384=VECTOR('',#1682,10.);
#385=VECTOR('',#1685,10.);
#386=VECTOR('',#1688,10.);
#387=VECTOR('',#1689,10.);
#388=VECTOR('',#1692,10.);
#389=VECTOR('',#1695,10.);
#390=VECTOR('',#1696,10.);
#391=VECTOR('',#1701,10.);
#392=VECTOR('',#1702,10.);
#393=VECTOR('',#1705,10.);
#394=VECTOR('',#1708,10.);
#395=VECTOR('',#1711,10.);
#396=VECTOR('',#1714,10.);
#397=VECTOR('',#1717,10.);
#398=VECTOR('',#1720,10.);
#399=VECTOR('',#1725,10.);
#400=VECTOR('',#1726,10.);
#401=VECTOR('',#1729,10.);
#402=VECTOR('',#1732,10.);
#403=VECTOR('',#1733,10.);
#404=VECTOR('',#1736,10.);
#405=VECTOR('',#1739,10.);
#406=VECTOR('',#1740,10.);
#407=VECTOR('',#1745,10.);
#408=VECTOR('',#1746,10.);
#409=VECTOR('',#1749,10.);
#410=VECTOR('',#1752,10.);
#411=VECTOR('',#1753,10.);
#412=VECTOR('',#1758,10.);
#413=VECTOR('',#1765,10.);
#414=VECTOR('',#1768,10.);
#415=VECTOR('',#1771,10.);
#416=VECTOR('',#1774,10.);
#417=VECTOR('',#1775,10.);
#418=VECTOR('',#1780,10.);
#419=VECTOR('',#1789,10.);
#420=VECTOR('',#1796,10.);
#421=VECTOR('',#1799,10.);
#422=VECTOR('',#1808,10.);
#423=VECTOR('',#1811,10.);
#424=VECTOR('',#1814,10.);
#425=CIRCLE('',#1299,1.);
#426=CIRCLE('',#1300,1.);
#427=CIRCLE('',#1302,1.);
#428=CIRCLE('',#1303,1.);
#429=CIRCLE('',#1304,1.);
#430=CIRCLE('',#1306,1.);
#431=CIRCLE('',#1308,1.);
#432=CIRCLE('',#1310,1.);
#433=CIRCLE('',#1314,2.99999999999999);
#434=CIRCLE('',#1315,2.99999999999999);
#435=CIRCLE('',#1317,4.75);
#436=CIRCLE('',#1318,4.75);
#437=CIRCLE('',#1320,2.50000000000001);
#438=CIRCLE('',#1321,1.);
#439=CIRCLE('',#1322,4.5);
#440=CIRCLE('',#1323,1.);
#441=CIRCLE('',#1324,6.75000000000001);
#442=CIRCLE('',#1325,1.);
#443=CIRCLE('',#1326,3.);
#444=CIRCLE('',#1327,1.);
#445=CIRCLE('',#1328,1.24999999999998);
#446=CIRCLE('',#1329,1.25);
#447=CIRCLE('',#1330,1.);
#448=CIRCLE('',#1331,3.);
#449=CIRCLE('',#1332,1.);
#450=CIRCLE('',#1333,6.75);
#451=CIRCLE('',#1334,1.);
#452=CIRCLE('',#1335,4.75);
#453=CIRCLE('',#1336,1.);
#454=CIRCLE('',#1337,1.);
#455=CIRCLE('',#1338,1.);
#456=CIRCLE('',#1339,1.);
#457=CIRCLE('',#1340,1.);
#458=CIRCLE('',#1341,1.);
#459=CIRCLE('',#1342,1.);
#460=CIRCLE('',#1343,1.);
#461=CIRCLE('',#1344,1.);
#462=CIRCLE('',#1345,1.);
#463=CIRCLE('',#1346,1.);
#464=CIRCLE('',#1347,1.);
#465=CIRCLE('',#1349,4.75);
#466=CIRCLE('',#1350,1.);
#467=CIRCLE('',#1351,6.75);
#468=CIRCLE('',#1352,1.);
#469=CIRCLE('',#1353,3.);
#470=CIRCLE('',#1354,1.);
#471=CIRCLE('',#1355,1.25);
#472=CIRCLE('',#1356,1.24999999999998);
#473=CIRCLE('',#1357,1.);
#474=CIRCLE('',#1358,3.);
#475=CIRCLE('',#1359,1.);
#476=CIRCLE('',#1360,6.75000000000001);
#477=CIRCLE('',#1361,1.);
#478=CIRCLE('',#1362,4.5);
#479=CIRCLE('',#1363,1.);
#480=CIRCLE('',#1364,2.50000000000001);
#481=CIRCLE('',#1365,1.);
#482=CIRCLE('',#1366,1.);
#483=CIRCLE('',#1367,1.);
#484=CIRCLE('',#1368,1.);
#485=CIRCLE('',#1369,1.);
#486=CIRCLE('',#1370,1.);
#487=CIRCLE('',#1371,1.);
#488=CIRCLE('',#1372,1.);
#489=CIRCLE('',#1373,1.);
#490=CIRCLE('',#1374,1.);
#491=CIRCLE('',#1375,1.);
#492=CIRCLE('',#1376,1.);
#493=VERTEX_POINT('',#1819);
#494=VERTEX_POINT('',#1820);
#495=VERTEX_POINT('',#1822);
#496=VERTEX_POINT('',#1824);
#497=VERTEX_POINT('',#1828);
#498=VERTEX_POINT('',#1830);
#499=VERTEX_POINT('',#1832);
#500=VERTEX_POINT('',#1834);
#501=VERTEX_POINT('',#1836);
#502=VERTEX_POINT('',#1838);
#503=VERTEX_POINT('',#1840);
#504=VERTEX_POINT('',#1842);
#505=VERTEX_POINT('',#1846);
#506=VERTEX_POINT('',#1850);
#507=VERTEX_POINT('',#1852);
#508=VERTEX_POINT('',#1856);
#509=VERTEX_POINT('',#1858);
#510=VERTEX_POINT('',#1860);
#511=VERTEX_POINT('',#1862);
#512=VERTEX_POINT('',#1865);
#513=VERTEX_POINT('',#1872);
#514=VERTEX_POINT('',#1873);
#515=VERTEX_POINT('',#1875);
#516=VERTEX_POINT('',#1877);
#517=VERTEX_POINT('',#1881);
#518=VERTEX_POINT('',#1883);
#519=VERTEX_POINT('',#1887);
#520=VERTEX_POINT('',#1889);
#521=VERTEX_POINT('',#1891);
#522=VERTEX_POINT('',#1893);
#523=VERTEX_POINT('',#1895);
#524=VERTEX_POINT('',#1897);
#525=VERTEX_POINT('',#1899);
#526=VERTEX_POINT('',#1901);
#527=VERTEX_POINT('',#1903);
#528=VERTEX_POINT('',#1905);
#529=VERTEX_POINT('',#1907);
#530=VERTEX_POINT('',#1909);
#531=VERTEX_POINT('',#1911);
#532=VERTEX_POINT('',#1913);
#533=VERTEX_POINT('',#1915);
#534=VERTEX_POINT('',#1917);
#535=VERTEX_POINT('',#1919);
#536=VERTEX_POINT('',#1921);
#537=VERTEX_POINT('',#1923);
#538=VERTEX_POINT('',#1925);
#539=VERTEX_POINT('',#1927);
#540=VERTEX_POINT('',#1929);
#541=VERTEX_POINT('',#1931);
#542=VERTEX_POINT('',#1933);
#543=VERTEX_POINT('',#1935);
#544=VERTEX_POINT('',#1937);
#545=VERTEX_POINT('',#1939);
#546=VERTEX_POINT('',#1941);
#547=VERTEX_POINT('',#1943);
#548=VERTEX_POINT('',#1945);
#549=VERTEX_POINT('',#1948);
#550=VERTEX_POINT('',#1950);
#551=VERTEX_POINT('',#1952);
#552=VERTEX_POINT('',#1954);
#553=VERTEX_POINT('',#1956);
#554=VERTEX_POINT('',#1958);
#555=VERTEX_POINT('',#1961);
#556=VERTEX_POINT('',#1963);
#557=VERTEX_POINT('',#1965);
#558=VERTEX_POINT('',#1967);
#559=VERTEX_POINT('',#1969);
#560=VERTEX_POINT('',#1971);
#561=VERTEX_POINT('',#1974);
#562=VERTEX_POINT('',#1975);
#563=VERTEX_POINT('',#1977);
#564=VERTEX_POINT('',#1979);
#565=VERTEX_POINT('',#1981);
#566=VERTEX_POINT('',#1983);
#567=VERTEX_POINT('',#1985);
#568=VERTEX_POINT('',#1987);
#569=VERTEX_POINT('',#1991);
#570=VERTEX_POINT('',#1993);
#571=VERTEX_POINT('',#1995);
#572=VERTEX_POINT('',#1997);
#573=VERTEX_POINT('',#1999);
#574=VERTEX_POINT('',#2001);
#575=VERTEX_POINT('',#2003);
#576=VERTEX_POINT('',#2005);
#577=VERTEX_POINT('',#2007);
#578=VERTEX_POINT('',#2009);
#579=VERTEX_POINT('',#2011);
#580=VERTEX_POINT('',#2013);
#581=VERTEX_POINT('',#2015);
#582=VERTEX_POINT('',#2017);
#583=VERTEX_POINT('',#2019);
#584=VERTEX_POINT('',#2021);
#585=VERTEX_POINT('',#2023);
#586=VERTEX_POINT('',#2025);
#587=VERTEX_POINT('',#2027);
#588=VERTEX_POINT('',#2029);
#589=VERTEX_POINT('',#2031);
#590=VERTEX_POINT('',#2033);
#591=VERTEX_POINT('',#2035);
#592=VERTEX_POINT('',#2037);
#593=VERTEX_POINT('',#2039);
#594=VERTEX_POINT('',#2041);
#595=VERTEX_POINT('',#2043);
#596=VERTEX_POINT('',#2045);
#597=VERTEX_POINT('',#2047);
#598=VERTEX_POINT('',#2049);
#599=VERTEX_POINT('',#2052);
#600=VERTEX_POINT('',#2053);
#601=VERTEX_POINT('',#2055);
#602=VERTEX_POINT('',#2057);
#603=VERTEX_POINT('',#2059);
#604=VERTEX_POINT('',#2061);
#605=VERTEX_POINT('',#2063);
#606=VERTEX_POINT('',#2065);
#607=VERTEX_POINT('',#2068);
#608=VERTEX_POINT('',#2070);
#609=VERTEX_POINT('',#2072);
#610=VERTEX_POINT('',#2074);
#611=VERTEX_POINT('',#2076);
#612=VERTEX_POINT('',#2078);
#613=VERTEX_POINT('',#2081);
#614=VERTEX_POINT('',#2083);
#615=VERTEX_POINT('',#2085);
#616=VERTEX_POINT('',#2087);
#617=VERTEX_POINT('',#2089);
#618=VERTEX_POINT('',#2091);
#619=EDGE_CURVE('',#493,#494,#425,.T.);
#620=EDGE_CURVE('',#494,#495,#183,.T.);
#621=EDGE_CURVE('',#495,#496,#426,.T.);
#622=EDGE_CURVE('',#496,#493,#184,.T.);
#623=EDGE_CURVE('',#497,#495,#427,.T.);
#624=EDGE_CURVE('',#497,#498,#185,.T.);
#625=EDGE_CURVE('',#499,#498,#428,.T.);
#626=EDGE_CURVE('',#500,#499,#429,.T.);
#627=EDGE_CURVE('',#501,#500,#186,.T.);
#628=EDGE_CURVE('',#502,#501,#187,.T.);
#629=EDGE_CURVE('',#502,#503,#188,.T.);
#630=EDGE_CURVE('',#504,#503,#189,.T.);
#631=EDGE_CURVE('',#496,#504,#190,.T.);
#632=EDGE_CURVE('',#494,#505,#430,.T.);
#633=EDGE_CURVE('',#505,#497,#191,.T.);
#634=EDGE_CURVE('',#499,#506,#192,.T.);
#635=EDGE_CURVE('',#506,#507,#431,.T.);
#636=EDGE_CURVE('',#507,#500,#193,.T.);
#637=EDGE_CURVE('',#508,#493,#194,.T.);
#638=EDGE_CURVE('',#509,#508,#195,.T.);
#639=EDGE_CURVE('',#509,#510,#196,.T.);
#640=EDGE_CURVE('',#511,#510,#197,.T.);
#641=EDGE_CURVE('',#507,#511,#198,.T.);
#642=EDGE_CURVE('',#512,#506,#432,.T.);
#643=EDGE_CURVE('',#512,#505,#199,.T.);
#644=EDGE_CURVE('',#498,#512,#200,.T.);
#645=EDGE_CURVE('',#513,#514,#433,.T.);
#646=EDGE_CURVE('',#514,#515,#201,.T.);
#647=EDGE_CURVE('',#515,#516,#434,.T.);
#648=EDGE_CURVE('',#516,#513,#202,.T.);
#649=EDGE_CURVE('',#517,#516,#435,.T.);
#650=EDGE_CURVE('',#518,#517,#203,.T.);
#651=EDGE_CURVE('',#513,#518,#436,.T.);
#652=EDGE_CURVE('',#515,#519,#437,.T.);
#653=EDGE_CURVE('',#519,#520,#204,.T.);
#654=EDGE_CURVE('',#521,#520,#438,.T.);
#655=EDGE_CURVE('',#521,#522,#205,.T.);
#656=EDGE_CURVE('',#522,#523,#439,.T.);
#657=EDGE_CURVE('',#524,#523,#440,.T.);
#658=EDGE_CURVE('',#524,#525,#441,.T.);
#659=EDGE_CURVE('',#525,#526,#206,.T.);
#660=EDGE_CURVE('',#527,#526,#442,.T.);
#661=EDGE_CURVE('',#527,#528,#207,.T.);
#662=EDGE_CURVE('',#528,#529,#208,.T.);
#663=EDGE_CURVE('',#530,#529,#443,.T.);
#664=EDGE_CURVE('',#530,#531,#209,.T.);
#665=EDGE_CURVE('',#532,#531,#444,.T.);
#666=EDGE_CURVE('',#532,#533,#210,.T.);
#667=EDGE_CURVE('',#533,#534,#445,.T.);
#668=EDGE_CURVE('',#534,#535,#211,.T.);
#669=EDGE_CURVE('',#535,#536,#446,.T.);
#670=EDGE_CURVE('',#536,#537,#212,.T.);
#671=EDGE_CURVE('',#538,#537,#447,.T.);
#672=EDGE_CURVE('',#538,#539,#213,.T.);
#673=EDGE_CURVE('',#540,#539,#448,.T.);
#674=EDGE_CURVE('',#540,#541,#214,.T.);
#675=EDGE_CURVE('',#541,#542,#215,.T.);
#676=EDGE_CURVE('',#543,#542,#449,.T.);
#677=EDGE_CURVE('',#543,#544,#450,.T.);
#678=EDGE_CURVE('',#544,#545,#216,.T.);
#679=EDGE_CURVE('',#546,#545,#451,.T.);
#680=EDGE_CURVE('',#546,#547,#217,.T.);
#681=EDGE_CURVE('',#547,#548,#452,.T.);
#682=EDGE_CURVE('',#548,#517,#218,.T.);
#683=EDGE_CURVE('',#549,#504,#453,.T.);
#684=EDGE_CURVE('',#549,#550,#219,.T.);
#685=EDGE_CURVE('',#551,#550,#454,.T.);
#686=EDGE_CURVE('',#551,#552,#220,.T.);
#687=EDGE_CURVE('',#553,#552,#455,.T.);
#688=EDGE_CURVE('',#553,#554,#221,.T.);
#689=EDGE_CURVE('',#501,#554,#456,.T.);
#690=EDGE_CURVE('',#555,#511,#457,.T.);
#691=EDGE_CURVE('',#555,#556,#222,.T.);
#692=EDGE_CURVE('',#557,#556,#458,.T.);
#693=EDGE_CURVE('',#557,#558,#223,.T.);
#694=EDGE_CURVE('',#559,#558,#459,.T.);
#695=EDGE_CURVE('',#559,#560,#224,.T.);
#696=EDGE_CURVE('',#508,#560,#460,.T.);
#697=EDGE_CURVE('',#561,#562,#225,.T.);
#698=EDGE_CURVE('',#563,#562,#461,.T.);
#699=EDGE_CURVE('',#563,#564,#226,.T.);
#700=EDGE_CURVE('',#565,#564,#462,.T.);
#701=EDGE_CURVE('',#565,#566,#227,.T.);
#702=EDGE_CURVE('',#567,#566,#463,.T.);
#703=EDGE_CURVE('',#567,#568,#228,.T.);
#704=EDGE_CURVE('',#561,#568,#464,.T.);
#705=EDGE_CURVE('',#569,#518,#229,.T.);
#706=EDGE_CURVE('',#569,#570,#465,.T.);
#707=EDGE_CURVE('',#571,#570,#230,.T.);
#708=EDGE_CURVE('',#572,#571,#466,.T.);
#709=EDGE_CURVE('',#572,#573,#231,.T.);
#710=EDGE_CURVE('',#574,#573,#467,.T.);
#711=EDGE_CURVE('',#575,#574,#468,.T.);
#712=EDGE_CURVE('',#576,#575,#232,.T.);
#713=EDGE_CURVE('',#577,#576,#233,.T.);
#714=EDGE_CURVE('',#578,#577,#469,.T.);
#715=EDGE_CURVE('',#579,#578,#234,.T.);
#716=EDGE_CURVE('',#580,#579,#470,.T.);
#717=EDGE_CURVE('',#581,#580,#235,.T.);
#718=EDGE_CURVE('',#582,#581,#471,.T.);
#719=EDGE_CURVE('',#583,#582,#236,.T.);
#720=EDGE_CURVE('',#584,#583,#472,.T.);
#721=EDGE_CURVE('',#584,#585,#237,.T.);
#722=EDGE_CURVE('',#586,#585,#473,.T.);
#723=EDGE_CURVE('',#586,#587,#238,.T.);
#724=EDGE_CURVE('',#588,#587,#474,.T.);
#725=EDGE_CURVE('',#589,#588,#239,.T.);
#726=EDGE_CURVE('',#589,#590,#240,.T.);
#727=EDGE_CURVE('',#591,#590,#475,.T.);
#728=EDGE_CURVE('',#591,#592,#241,.T.);
#729=EDGE_CURVE('',#593,#592,#476,.T.);
#730=EDGE_CURVE('',#594,#593,#477,.T.);
#731=EDGE_CURVE('',#595,#594,#478,.T.);
#732=EDGE_CURVE('',#596,#595,#242,.T.);
#733=EDGE_CURVE('',#597,#596,#479,.T.);
#734=EDGE_CURVE('',#598,#597,#243,.T.);
#735=EDGE_CURVE('',#598,#514,#480,.T.);
#736=EDGE_CURVE('',#599,#600,#481,.T.);
#737=EDGE_CURVE('',#601,#599,#244,.T.);
#738=EDGE_CURVE('',#602,#601,#482,.T.);
#739=EDGE_CURVE('',#603,#602,#245,.T.);
#740=EDGE_CURVE('',#604,#603,#483,.T.);
#741=EDGE_CURVE('',#605,#604,#246,.T.);
#742=EDGE_CURVE('',#606,#605,#484,.T.);
#743=EDGE_CURVE('',#600,#606,#247,.T.);
#744=EDGE_CURVE('',#607,#509,#485,.T.);
#745=EDGE_CURVE('',#608,#607,#248,.T.);
#746=EDGE_CURVE('',#609,#608,#486,.T.);
#747=EDGE_CURVE('',#610,#609,#249,.T.);
#748=EDGE_CURVE('',#611,#610,#487,.T.);
#749=EDGE_CURVE('',#612,#611,#250,.T.);
#750=EDGE_CURVE('',#510,#612,#488,.T.);
#751=EDGE_CURVE('',#503,#613,#489,.T.);
#752=EDGE_CURVE('',#614,#502,#490,.T.);
#753=EDGE_CURVE('',#615,#614,#251,.T.);
#754=EDGE_CURVE('',#616,#615,#491,.T.);
#755=EDGE_CURVE('',#617,#616,#252,.T.);
#756=EDGE_CURVE('',#618,#617,#492,.T.);
#757=EDGE_CURVE('',#613,#618,#253,.T.);
#758=EDGE_CURVE('',#520,#597,#254,.T.);
#759=EDGE_CURVE('',#596,#521,#255,.T.);
#760=EDGE_CURVE('',#598,#519,#256,.T.);
#761=EDGE_CURVE('',#545,#572,#257,.T.);
#762=EDGE_CURVE('',#571,#546,#258,.T.);
#763=EDGE_CURVE('',#529,#588,#259,.T.);
#764=EDGE_CURVE('',#587,#530,#260,.T.);
#765=EDGE_CURVE('',#589,#528,#261,.T.);
#766=EDGE_CURVE('',#539,#578,#262,.T.);
#767=EDGE_CURVE('',#577,#540,#263,.T.);
#768=EDGE_CURVE('',#576,#541,#264,.T.);
#769=EDGE_CURVE('',#585,#532,#265,.T.);
#770=EDGE_CURVE('',#531,#586,#266,.T.);
#771=EDGE_CURVE('',#584,#533,#267,.T.);
#772=EDGE_CURVE('',#579,#538,#268,.T.);
#773=EDGE_CURVE('',#537,#580,#269,.T.);
#774=EDGE_CURVE('',#603,#565,#270,.T.);
#775=EDGE_CURVE('',#564,#604,#271,.T.);
#776=EDGE_CURVE('',#566,#602,#272,.T.);
#777=EDGE_CURVE('',#601,#567,#273,.T.);
#778=EDGE_CURVE('',#568,#599,#274,.T.);
#779=EDGE_CURVE('',#600,#561,#275,.T.);
#780=EDGE_CURVE('',#562,#606,#276,.T.);
#781=EDGE_CURVE('',#605,#563,#277,.T.);
#782=EDGE_CURVE('',#574,#543,#278,.T.);
#783=EDGE_CURVE('',#542,#575,#279,.T.);
#784=EDGE_CURVE('',#573,#544,#280,.T.);
#785=EDGE_CURVE('',#593,#524,#281,.T.);
#786=EDGE_CURVE('',#523,#594,#282,.T.);
#787=EDGE_CURVE('',#592,#525,#283,.T.);
#788=EDGE_CURVE('',#590,#527,#284,.T.);
#789=EDGE_CURVE('',#526,#591,#285,.T.);
#790=EDGE_CURVE('',#615,#553,#286,.T.);
#791=EDGE_CURVE('',#552,#616,#287,.T.);
#792=EDGE_CURVE('',#554,#614,#288,.T.);
#793=EDGE_CURVE('',#617,#551,#289,.T.);
#794=EDGE_CURVE('',#550,#618,#290,.T.);
#795=EDGE_CURVE('',#613,#549,#291,.T.);
#796=EDGE_CURVE('',#612,#555,#292,.T.);
#797=EDGE_CURVE('',#556,#611,#293,.T.);
#798=EDGE_CURVE('',#560,#607,#294,.T.);
#799=EDGE_CURVE('',#608,#559,#295,.T.);
#800=EDGE_CURVE('',#558,#609,#296,.T.);
#801=EDGE_CURVE('',#610,#557,#297,.T.);
#802=EDGE_CURVE('',#595,#522,#298,.T.);
#803=EDGE_CURVE('',#569,#548,#299,.T.);
#804=EDGE_CURVE('',#570,#547,#300,.T.);
#805=EDGE_CURVE('',#581,#536,#301,.T.);
#806=EDGE_CURVE('',#582,#535,#302,.T.);
#807=EDGE_CURVE('',#583,#534,#303,.T.);
#808=ORIENTED_EDGE('',*,*,#619,.T.);
#809=ORIENTED_EDGE('',*,*,#620,.T.);
#810=ORIENTED_EDGE('',*,*,#621,.T.);
#811=ORIENTED_EDGE('',*,*,#622,.T.);
#812=ORIENTED_EDGE('',*,*,#621,.F.);
#813=ORIENTED_EDGE('',*,*,#623,.F.);
#814=ORIENTED_EDGE('',*,*,#624,.T.);
#815=ORIENTED_EDGE('',*,*,#625,.F.);
#816=ORIENTED_EDGE('',*,*,#626,.F.);
#817=ORIENTED_EDGE('',*,*,#627,.F.);
#818=ORIENTED_EDGE('',*,*,#628,.F.);
#819=ORIENTED_EDGE('',*,*,#629,.T.);
#820=ORIENTED_EDGE('',*,*,#630,.F.);
#821=ORIENTED_EDGE('',*,*,#631,.F.);
#822=ORIENTED_EDGE('',*,*,#620,.F.);
#823=ORIENTED_EDGE('',*,*,#632,.T.);
#824=ORIENTED_EDGE('',*,*,#633,.T.);
#825=ORIENTED_EDGE('',*,*,#623,.T.);
#826=ORIENTED_EDGE('',*,*,#626,.T.);
#827=ORIENTED_EDGE('',*,*,#634,.T.);
#828=ORIENTED_EDGE('',*,*,#635,.T.);
#829=ORIENTED_EDGE('',*,*,#636,.T.);
#830=ORIENTED_EDGE('',*,*,#619,.F.);
#831=ORIENTED_EDGE('',*,*,#637,.F.);
#832=ORIENTED_EDGE('',*,*,#638,.F.);
#833=ORIENTED_EDGE('',*,*,#639,.T.);
#834=ORIENTED_EDGE('',*,*,#640,.F.);
#835=ORIENTED_EDGE('',*,*,#641,.F.);
#836=ORIENTED_EDGE('',*,*,#635,.F.);
#837=ORIENTED_EDGE('',*,*,#642,.F.);
#838=ORIENTED_EDGE('',*,*,#643,.T.);
#839=ORIENTED_EDGE('',*,*,#632,.F.);
#840=ORIENTED_EDGE('',*,*,#634,.F.);
#841=ORIENTED_EDGE('',*,*,#625,.T.);
#842=ORIENTED_EDGE('',*,*,#644,.T.);
#843=ORIENTED_EDGE('',*,*,#642,.T.);
#844=ORIENTED_EDGE('',*,*,#633,.F.);
#845=ORIENTED_EDGE('',*,*,#643,.F.);
#846=ORIENTED_EDGE('',*,*,#644,.F.);
#847=ORIENTED_EDGE('',*,*,#624,.F.);
#848=ORIENTED_EDGE('',*,*,#645,.T.);
#849=ORIENTED_EDGE('',*,*,#646,.T.);
#850=ORIENTED_EDGE('',*,*,#647,.T.);
#851=ORIENTED_EDGE('',*,*,#648,.T.);
#852=ORIENTED_EDGE('',*,*,#648,.F.);
#853=ORIENTED_EDGE('',*,*,#649,.F.);
#854=ORIENTED_EDGE('',*,*,#650,.F.);
#855=ORIENTED_EDGE('',*,*,#651,.F.);
#856=ORIENTED_EDGE('',*,*,#647,.F.);
#857=ORIENTED_EDGE('',*,*,#652,.T.);
#858=ORIENTED_EDGE('',*,*,#653,.T.);
#859=ORIENTED_EDGE('',*,*,#654,.F.);
#860=ORIENTED_EDGE('',*,*,#655,.T.);
#861=ORIENTED_EDGE('',*,*,#656,.T.);
#862=ORIENTED_EDGE('',*,*,#657,.F.);
#863=ORIENTED_EDGE('',*,*,#658,.T.);
#864=ORIENTED_EDGE('',*,*,#659,.T.);
#865=ORIENTED_EDGE('',*,*,#660,.F.);
#866=ORIENTED_EDGE('',*,*,#661,.T.);
#867=ORIENTED_EDGE('',*,*,#662,.T.);
#868=ORIENTED_EDGE('',*,*,#663,.F.);
#869=ORIENTED_EDGE('',*,*,#664,.T.);
#870=ORIENTED_EDGE('',*,*,#665,.F.);
#871=ORIENTED_EDGE('',*,*,#666,.T.);
#872=ORIENTED_EDGE('',*,*,#667,.T.);
#873=ORIENTED_EDGE('',*,*,#668,.T.);
#874=ORIENTED_EDGE('',*,*,#669,.T.);
#875=ORIENTED_EDGE('',*,*,#670,.T.);
#876=ORIENTED_EDGE('',*,*,#671,.F.);
#877=ORIENTED_EDGE('',*,*,#672,.T.);
#878=ORIENTED_EDGE('',*,*,#673,.F.);
#879=ORIENTED_EDGE('',*,*,#674,.T.);
#880=ORIENTED_EDGE('',*,*,#675,.T.);
#881=ORIENTED_EDGE('',*,*,#676,.F.);
#882=ORIENTED_EDGE('',*,*,#677,.T.);
#883=ORIENTED_EDGE('',*,*,#678,.T.);
#884=ORIENTED_EDGE('',*,*,#679,.F.);
#885=ORIENTED_EDGE('',*,*,#680,.T.);
#886=ORIENTED_EDGE('',*,*,#681,.T.);
#887=ORIENTED_EDGE('',*,*,#682,.T.);
#888=ORIENTED_EDGE('',*,*,#649,.T.);
#889=ORIENTED_EDGE('',*,*,#622,.F.);
#890=ORIENTED_EDGE('',*,*,#631,.T.);
#891=ORIENTED_EDGE('',*,*,#683,.F.);
#892=ORIENTED_EDGE('',*,*,#684,.T.);
#893=ORIENTED_EDGE('',*,*,#685,.F.);
#894=ORIENTED_EDGE('',*,*,#686,.T.);
#895=ORIENTED_EDGE('',*,*,#687,.F.);
#896=ORIENTED_EDGE('',*,*,#688,.T.);
#897=ORIENTED_EDGE('',*,*,#689,.F.);
#898=ORIENTED_EDGE('',*,*,#627,.T.);
#899=ORIENTED_EDGE('',*,*,#636,.F.);
#900=ORIENTED_EDGE('',*,*,#641,.T.);
#901=ORIENTED_EDGE('',*,*,#690,.F.);
#902=ORIENTED_EDGE('',*,*,#691,.T.);
#903=ORIENTED_EDGE('',*,*,#692,.F.);
#904=ORIENTED_EDGE('',*,*,#693,.T.);
#905=ORIENTED_EDGE('',*,*,#694,.F.);
#906=ORIENTED_EDGE('',*,*,#695,.T.);
#907=ORIENTED_EDGE('',*,*,#696,.F.);
#908=ORIENTED_EDGE('',*,*,#637,.T.);
#909=ORIENTED_EDGE('',*,*,#697,.T.);
#910=ORIENTED_EDGE('',*,*,#698,.F.);
#911=ORIENTED_EDGE('',*,*,#699,.T.);
#912=ORIENTED_EDGE('',*,*,#700,.F.);
#913=ORIENTED_EDGE('',*,*,#701,.T.);
#914=ORIENTED_EDGE('',*,*,#702,.F.);
#915=ORIENTED_EDGE('',*,*,#703,.T.);
#916=ORIENTED_EDGE('',*,*,#704,.F.);
#917=ORIENTED_EDGE('',*,*,#645,.F.);
#918=ORIENTED_EDGE('',*,*,#651,.T.);
#919=ORIENTED_EDGE('',*,*,#705,.F.);
#920=ORIENTED_EDGE('',*,*,#706,.T.);
#921=ORIENTED_EDGE('',*,*,#707,.F.);
#922=ORIENTED_EDGE('',*,*,#708,.F.);
#923=ORIENTED_EDGE('',*,*,#709,.T.);
#924=ORIENTED_EDGE('',*,*,#710,.F.);
#925=ORIENTED_EDGE('',*,*,#711,.F.);
#926=ORIENTED_EDGE('',*,*,#712,.F.);
#927=ORIENTED_EDGE('',*,*,#713,.F.);
#928=ORIENTED_EDGE('',*,*,#714,.F.);
#929=ORIENTED_EDGE('',*,*,#715,.F.);
#930=ORIENTED_EDGE('',*,*,#716,.F.);
#931=ORIENTED_EDGE('',*,*,#717,.F.);
#932=ORIENTED_EDGE('',*,*,#718,.F.);
#933=ORIENTED_EDGE('',*,*,#719,.F.);
#934=ORIENTED_EDGE('',*,*,#720,.F.);
#935=ORIENTED_EDGE('',*,*,#721,.T.);
#936=ORIENTED_EDGE('',*,*,#722,.F.);
#937=ORIENTED_EDGE('',*,*,#723,.T.);
#938=ORIENTED_EDGE('',*,*,#724,.F.);
#939=ORIENTED_EDGE('',*,*,#725,.F.);
#940=ORIENTED_EDGE('',*,*,#726,.T.);
#941=ORIENTED_EDGE('',*,*,#727,.F.);
#942=ORIENTED_EDGE('',*,*,#728,.T.);
#943=ORIENTED_EDGE('',*,*,#729,.F.);
#944=ORIENTED_EDGE('',*,*,#730,.F.);
#945=ORIENTED_EDGE('',*,*,#731,.F.);
#946=ORIENTED_EDGE('',*,*,#732,.F.);
#947=ORIENTED_EDGE('',*,*,#733,.F.);
#948=ORIENTED_EDGE('',*,*,#734,.F.);
#949=ORIENTED_EDGE('',*,*,#735,.T.);
#950=ORIENTED_EDGE('',*,*,#736,.F.);
#951=ORIENTED_EDGE('',*,*,#737,.F.);
#952=ORIENTED_EDGE('',*,*,#738,.F.);
#953=ORIENTED_EDGE('',*,*,#739,.F.);
#954=ORIENTED_EDGE('',*,*,#740,.F.);
#955=ORIENTED_EDGE('',*,*,#741,.F.);
#956=ORIENTED_EDGE('',*,*,#742,.F.);
#957=ORIENTED_EDGE('',*,*,#743,.F.);
#958=ORIENTED_EDGE('',*,*,#744,.F.);
#959=ORIENTED_EDGE('',*,*,#745,.F.);
#960=ORIENTED_EDGE('',*,*,#746,.F.);
#961=ORIENTED_EDGE('',*,*,#747,.F.);
#962=ORIENTED_EDGE('',*,*,#748,.F.);
#963=ORIENTED_EDGE('',*,*,#749,.F.);
#964=ORIENTED_EDGE('',*,*,#750,.F.);
#965=ORIENTED_EDGE('',*,*,#639,.F.);
#966=ORIENTED_EDGE('',*,*,#751,.F.);
#967=ORIENTED_EDGE('',*,*,#629,.F.);
#968=ORIENTED_EDGE('',*,*,#752,.F.);
#969=ORIENTED_EDGE('',*,*,#753,.F.);
#970=ORIENTED_EDGE('',*,*,#754,.F.);
#971=ORIENTED_EDGE('',*,*,#755,.F.);
#972=ORIENTED_EDGE('',*,*,#756,.F.);
#973=ORIENTED_EDGE('',*,*,#757,.F.);
#974=ORIENTED_EDGE('',*,*,#654,.T.);
#975=ORIENTED_EDGE('',*,*,#758,.T.);
#976=ORIENTED_EDGE('',*,*,#733,.T.);
#977=ORIENTED_EDGE('',*,*,#759,.T.);
#978=ORIENTED_EDGE('',*,*,#758,.F.);
#979=ORIENTED_EDGE('',*,*,#653,.F.);
#980=ORIENTED_EDGE('',*,*,#760,.F.);
#981=ORIENTED_EDGE('',*,*,#734,.T.);
#982=ORIENTED_EDGE('',*,*,#679,.T.);
#983=ORIENTED_EDGE('',*,*,#761,.T.);
#984=ORIENTED_EDGE('',*,*,#708,.T.);
#985=ORIENTED_EDGE('',*,*,#762,.T.);
#986=ORIENTED_EDGE('',*,*,#663,.T.);
#987=ORIENTED_EDGE('',*,*,#763,.T.);
#988=ORIENTED_EDGE('',*,*,#724,.T.);
#989=ORIENTED_EDGE('',*,*,#764,.T.);
#990=ORIENTED_EDGE('',*,*,#763,.F.);
#991=ORIENTED_EDGE('',*,*,#662,.F.);
#992=ORIENTED_EDGE('',*,*,#765,.F.);
#993=ORIENTED_EDGE('',*,*,#725,.T.);
#994=ORIENTED_EDGE('',*,*,#673,.T.);
#995=ORIENTED_EDGE('',*,*,#766,.T.);
#996=ORIENTED_EDGE('',*,*,#714,.T.);
#997=ORIENTED_EDGE('',*,*,#767,.T.);
#998=ORIENTED_EDGE('',*,*,#767,.F.);
#999=ORIENTED_EDGE('',*,*,#713,.T.);
#1000=ORIENTED_EDGE('',*,*,#768,.T.);
#1001=ORIENTED_EDGE('',*,*,#674,.F.);
#1002=ORIENTED_EDGE('',*,*,#722,.T.);
#1003=ORIENTED_EDGE('',*,*,#769,.T.);
#1004=ORIENTED_EDGE('',*,*,#665,.T.);
#1005=ORIENTED_EDGE('',*,*,#770,.T.);
#1006=ORIENTED_EDGE('',*,*,#769,.F.);
#1007=ORIENTED_EDGE('',*,*,#721,.F.);
#1008=ORIENTED_EDGE('',*,*,#771,.T.);
#1009=ORIENTED_EDGE('',*,*,#666,.F.);
#1010=ORIENTED_EDGE('',*,*,#716,.T.);
#1011=ORIENTED_EDGE('',*,*,#772,.T.);
#1012=ORIENTED_EDGE('',*,*,#671,.T.);
#1013=ORIENTED_EDGE('',*,*,#773,.T.);
#1014=ORIENTED_EDGE('',*,*,#766,.F.);
#1015=ORIENTED_EDGE('',*,*,#672,.F.);
#1016=ORIENTED_EDGE('',*,*,#772,.F.);
#1017=ORIENTED_EDGE('',*,*,#715,.T.);
#1018=ORIENTED_EDGE('',*,*,#740,.T.);
#1019=ORIENTED_EDGE('',*,*,#774,.T.);
#1020=ORIENTED_EDGE('',*,*,#700,.T.);
#1021=ORIENTED_EDGE('',*,*,#775,.T.);
#1022=ORIENTED_EDGE('',*,*,#774,.F.);
#1023=ORIENTED_EDGE('',*,*,#739,.T.);
#1024=ORIENTED_EDGE('',*,*,#776,.F.);
#1025=ORIENTED_EDGE('',*,*,#701,.F.);
#1026=ORIENTED_EDGE('',*,*,#738,.T.);
#1027=ORIENTED_EDGE('',*,*,#777,.T.);
#1028=ORIENTED_EDGE('',*,*,#702,.T.);
#1029=ORIENTED_EDGE('',*,*,#776,.T.);
#1030=ORIENTED_EDGE('',*,*,#777,.F.);
#1031=ORIENTED_EDGE('',*,*,#737,.T.);
#1032=ORIENTED_EDGE('',*,*,#778,.F.);
#1033=ORIENTED_EDGE('',*,*,#703,.F.);
#1034=ORIENTED_EDGE('',*,*,#736,.T.);
#1035=ORIENTED_EDGE('',*,*,#779,.T.);
#1036=ORIENTED_EDGE('',*,*,#704,.T.);
#1037=ORIENTED_EDGE('',*,*,#778,.T.);
#1038=ORIENTED_EDGE('',*,*,#779,.F.);
#1039=ORIENTED_EDGE('',*,*,#743,.T.);
#1040=ORIENTED_EDGE('',*,*,#780,.F.);
#1041=ORIENTED_EDGE('',*,*,#697,.F.);
#1042=ORIENTED_EDGE('',*,*,#742,.T.);
#1043=ORIENTED_EDGE('',*,*,#781,.T.);
#1044=ORIENTED_EDGE('',*,*,#698,.T.);
#1045=ORIENTED_EDGE('',*,*,#780,.T.);
#1046=ORIENTED_EDGE('',*,*,#775,.F.);
#1047=ORIENTED_EDGE('',*,*,#699,.F.);
#1048=ORIENTED_EDGE('',*,*,#781,.F.);
#1049=ORIENTED_EDGE('',*,*,#741,.T.);
#1050=ORIENTED_EDGE('',*,*,#711,.T.);
#1051=ORIENTED_EDGE('',*,*,#782,.T.);
#1052=ORIENTED_EDGE('',*,*,#676,.T.);
#1053=ORIENTED_EDGE('',*,*,#783,.T.);
#1054=ORIENTED_EDGE('',*,*,#782,.F.);
#1055=ORIENTED_EDGE('',*,*,#710,.T.);
#1056=ORIENTED_EDGE('',*,*,#784,.T.);
#1057=ORIENTED_EDGE('',*,*,#677,.F.);
#1058=ORIENTED_EDGE('',*,*,#730,.T.);
#1059=ORIENTED_EDGE('',*,*,#785,.T.);
#1060=ORIENTED_EDGE('',*,*,#657,.T.);
#1061=ORIENTED_EDGE('',*,*,#786,.T.);
#1062=ORIENTED_EDGE('',*,*,#785,.F.);
#1063=ORIENTED_EDGE('',*,*,#729,.T.);
#1064=ORIENTED_EDGE('',*,*,#787,.T.);
#1065=ORIENTED_EDGE('',*,*,#658,.F.);
#1066=ORIENTED_EDGE('',*,*,#727,.T.);
#1067=ORIENTED_EDGE('',*,*,#788,.T.);
#1068=ORIENTED_EDGE('',*,*,#660,.T.);
#1069=ORIENTED_EDGE('',*,*,#789,.T.);
#1070=ORIENTED_EDGE('',*,*,#788,.F.);
#1071=ORIENTED_EDGE('',*,*,#726,.F.);
#1072=ORIENTED_EDGE('',*,*,#765,.T.);
#1073=ORIENTED_EDGE('',*,*,#661,.F.);
#1074=ORIENTED_EDGE('',*,*,#754,.T.);
#1075=ORIENTED_EDGE('',*,*,#790,.T.);
#1076=ORIENTED_EDGE('',*,*,#687,.T.);
#1077=ORIENTED_EDGE('',*,*,#791,.T.);
#1078=ORIENTED_EDGE('',*,*,#790,.F.);
#1079=ORIENTED_EDGE('',*,*,#753,.T.);
#1080=ORIENTED_EDGE('',*,*,#792,.F.);
#1081=ORIENTED_EDGE('',*,*,#688,.F.);
#1082=ORIENTED_EDGE('',*,*,#756,.T.);
#1083=ORIENTED_EDGE('',*,*,#793,.T.);
#1084=ORIENTED_EDGE('',*,*,#685,.T.);
#1085=ORIENTED_EDGE('',*,*,#794,.T.);
#1086=ORIENTED_EDGE('',*,*,#791,.F.);
#1087=ORIENTED_EDGE('',*,*,#686,.F.);
#1088=ORIENTED_EDGE('',*,*,#793,.F.);
#1089=ORIENTED_EDGE('',*,*,#755,.T.);
#1090=ORIENTED_EDGE('',*,*,#751,.T.);
#1091=ORIENTED_EDGE('',*,*,#795,.T.);
#1092=ORIENTED_EDGE('',*,*,#683,.T.);
#1093=ORIENTED_EDGE('',*,*,#630,.T.);
#1094=ORIENTED_EDGE('',*,*,#794,.F.);
#1095=ORIENTED_EDGE('',*,*,#684,.F.);
#1096=ORIENTED_EDGE('',*,*,#795,.F.);
#1097=ORIENTED_EDGE('',*,*,#757,.T.);
#1098=ORIENTED_EDGE('',*,*,#752,.T.);
#1099=ORIENTED_EDGE('',*,*,#628,.T.);
#1100=ORIENTED_EDGE('',*,*,#689,.T.);
#1101=ORIENTED_EDGE('',*,*,#792,.T.);
#1102=ORIENTED_EDGE('',*,*,#750,.T.);
#1103=ORIENTED_EDGE('',*,*,#796,.T.);
#1104=ORIENTED_EDGE('',*,*,#690,.T.);
#1105=ORIENTED_EDGE('',*,*,#640,.T.);
#1106=ORIENTED_EDGE('',*,*,#796,.F.);
#1107=ORIENTED_EDGE('',*,*,#749,.T.);
#1108=ORIENTED_EDGE('',*,*,#797,.F.);
#1109=ORIENTED_EDGE('',*,*,#691,.F.);
#1110=ORIENTED_EDGE('',*,*,#744,.T.);
#1111=ORIENTED_EDGE('',*,*,#638,.T.);
#1112=ORIENTED_EDGE('',*,*,#696,.T.);
#1113=ORIENTED_EDGE('',*,*,#798,.T.);
#1114=ORIENTED_EDGE('',*,*,#746,.T.);
#1115=ORIENTED_EDGE('',*,*,#799,.T.);
#1116=ORIENTED_EDGE('',*,*,#694,.T.);
#1117=ORIENTED_EDGE('',*,*,#800,.T.);
#1118=ORIENTED_EDGE('',*,*,#798,.F.);
#1119=ORIENTED_EDGE('',*,*,#695,.F.);
#1120=ORIENTED_EDGE('',*,*,#799,.F.);
#1121=ORIENTED_EDGE('',*,*,#745,.T.);
#1122=ORIENTED_EDGE('',*,*,#748,.T.);
#1123=ORIENTED_EDGE('',*,*,#801,.T.);
#1124=ORIENTED_EDGE('',*,*,#692,.T.);
#1125=ORIENTED_EDGE('',*,*,#797,.T.);
#1126=ORIENTED_EDGE('',*,*,#800,.F.);
#1127=ORIENTED_EDGE('',*,*,#693,.F.);
#1128=ORIENTED_EDGE('',*,*,#801,.F.);
#1129=ORIENTED_EDGE('',*,*,#747,.T.);
#1130=ORIENTED_EDGE('',*,*,#764,.F.);
#1131=ORIENTED_EDGE('',*,*,#723,.F.);
#1132=ORIENTED_EDGE('',*,*,#770,.F.);
#1133=ORIENTED_EDGE('',*,*,#664,.F.);
#1134=ORIENTED_EDGE('',*,*,#789,.F.);
#1135=ORIENTED_EDGE('',*,*,#659,.F.);
#1136=ORIENTED_EDGE('',*,*,#787,.F.);
#1137=ORIENTED_EDGE('',*,*,#728,.F.);
#1138=ORIENTED_EDGE('',*,*,#786,.F.);
#1139=ORIENTED_EDGE('',*,*,#656,.F.);
#1140=ORIENTED_EDGE('',*,*,#802,.F.);
#1141=ORIENTED_EDGE('',*,*,#731,.T.);
#1142=ORIENTED_EDGE('',*,*,#759,.F.);
#1143=ORIENTED_EDGE('',*,*,#732,.T.);
#1144=ORIENTED_EDGE('',*,*,#802,.T.);
#1145=ORIENTED_EDGE('',*,*,#655,.F.);
#1146=ORIENTED_EDGE('',*,*,#646,.F.);
#1147=ORIENTED_EDGE('',*,*,#735,.F.);
#1148=ORIENTED_EDGE('',*,*,#760,.T.);
#1149=ORIENTED_EDGE('',*,*,#652,.F.);
#1150=ORIENTED_EDGE('',*,*,#705,.T.);
#1151=ORIENTED_EDGE('',*,*,#650,.T.);
#1152=ORIENTED_EDGE('',*,*,#682,.F.);
#1153=ORIENTED_EDGE('',*,*,#803,.F.);
#1154=ORIENTED_EDGE('',*,*,#706,.F.);
#1155=ORIENTED_EDGE('',*,*,#803,.T.);
#1156=ORIENTED_EDGE('',*,*,#681,.F.);
#1157=ORIENTED_EDGE('',*,*,#804,.F.);
#1158=ORIENTED_EDGE('',*,*,#762,.F.);
#1159=ORIENTED_EDGE('',*,*,#707,.T.);
#1160=ORIENTED_EDGE('',*,*,#804,.T.);
#1161=ORIENTED_EDGE('',*,*,#680,.F.);
#1162=ORIENTED_EDGE('',*,*,#761,.F.);
#1163=ORIENTED_EDGE('',*,*,#678,.F.);
#1164=ORIENTED_EDGE('',*,*,#784,.F.);
#1165=ORIENTED_EDGE('',*,*,#709,.F.);
#1166=ORIENTED_EDGE('',*,*,#783,.F.);
#1167=ORIENTED_EDGE('',*,*,#675,.F.);
#1168=ORIENTED_EDGE('',*,*,#768,.F.);
#1169=ORIENTED_EDGE('',*,*,#712,.T.);
#1170=ORIENTED_EDGE('',*,*,#773,.F.);
#1171=ORIENTED_EDGE('',*,*,#670,.F.);
#1172=ORIENTED_EDGE('',*,*,#805,.F.);
#1173=ORIENTED_EDGE('',*,*,#717,.T.);
#1174=ORIENTED_EDGE('',*,*,#718,.T.);
#1175=ORIENTED_EDGE('',*,*,#805,.T.);
#1176=ORIENTED_EDGE('',*,*,#669,.F.);
#1177=ORIENTED_EDGE('',*,*,#806,.F.);
#1178=ORIENTED_EDGE('',*,*,#719,.T.);
#1179=ORIENTED_EDGE('',*,*,#806,.T.);
#1180=ORIENTED_EDGE('',*,*,#668,.F.);
#1181=ORIENTED_EDGE('',*,*,#807,.F.);
#1182=ORIENTED_EDGE('',*,*,#720,.T.);
#1183=ORIENTED_EDGE('',*,*,#807,.T.);
#1184=ORIENTED_EDGE('',*,*,#667,.F.);
#1185=ORIENTED_EDGE('',*,*,#771,.F.);
#1186=CYLINDRICAL_SURFACE('',#1298,1.);
#1187=CYLINDRICAL_SURFACE('',#1305,1.);
#1188=CYLINDRICAL_SURFACE('',#1307,1.);
#1189=CYLINDRICAL_SURFACE('',#1311,1.);
#1190=CYLINDRICAL_SURFACE('',#1313,2.99999999999999);
#1191=CYLINDRICAL_SURFACE('',#1316,4.75);
#1192=CYLINDRICAL_SURFACE('',#1377,1.);
#1193=CYLINDRICAL_SURFACE('',#1379,1.);
#1194=CYLINDRICAL_SURFACE('',#1380,3.);
#1195=CYLINDRICAL_SURFACE('',#1382,3.);
#1196=CYLINDRICAL_SURFACE('',#1384,1.);
#1197=CYLINDRICAL_SURFACE('',#1386,1.);
#1198=CYLINDRICAL_SURFACE('',#1388,1.);
#1199=CYLINDRICAL_SURFACE('',#1390,1.);
#1200=CYLINDRICAL_SURFACE('',#1392,1.);
#1201=CYLINDRICAL_SURFACE('',#1394,1.);
#1202=CYLINDRICAL_SURFACE('',#1396,1.);
#1203=CYLINDRICAL_SURFACE('',#1397,6.75);
#1204=CYLINDRICAL_SURFACE('',#1398,1.);
#1205=CYLINDRICAL_SURFACE('',#1399,6.75000000000001);
#1206=CYLINDRICAL_SURFACE('',#1400,1.);
#1207=CYLINDRICAL_SURFACE('',#1402,1.);
#1208=CYLINDRICAL_SURFACE('',#1404,1.);
#1209=CYLINDRICAL_SURFACE('',#1406,1.);
#1210=CYLINDRICAL_SURFACE('',#1408,1.);
#1211=CYLINDRICAL_SURFACE('',#1409,1.);
#1212=CYLINDRICAL_SURFACE('',#1411,1.);
#1213=CYLINDRICAL_SURFACE('',#1412,1.);
#1214=CYLINDRICAL_SURFACE('',#1414,1.);
#1215=CYLINDRICAL_SURFACE('',#1418,4.5);
#1216=CYLINDRICAL_SURFACE('',#1420,2.50000000000001);
#1217=CYLINDRICAL_SURFACE('',#1422,4.75);
#1218=CYLINDRICAL_SURFACE('',#1427,1.25);
#1219=CYLINDRICAL_SURFACE('',#1429,1.24999999999998);
#1220=ADVANCED_FACE('',(#50),#1186,.T.);
#1221=ADVANCED_FACE('',(#51),#20,.T.);
#1222=ADVANCED_FACE('',(#52),#1187,.F.);
#1223=ADVANCED_FACE('',(#53),#1188,.T.);
#1224=ADVANCED_FACE('',(#54),#21,.T.);
#1225=ADVANCED_FACE('',(#55),#1189,.F.);
#1226=ADVANCED_FACE('',(#56),#22,.F.);
#1227=ADVANCED_FACE('',(#57),#1190,.T.);
#1228=ADVANCED_FACE('',(#58),#1191,.F.);
#1229=ADVANCED_FACE('',(#59,#15,#16),#23,.T.);
#1230=ADVANCED_FACE('',(#60,#17,#18,#19),#24,.F.);
#1231=ADVANCED_FACE('',(#61),#1192,.T.);
#1232=ADVANCED_FACE('',(#62),#25,.T.);
#1233=ADVANCED_FACE('',(#63),#1193,.T.);
#1234=ADVANCED_FACE('',(#64),#1194,.T.);
#1235=ADVANCED_FACE('',(#65),#26,.T.);
#1236=ADVANCED_FACE('',(#66),#1195,.T.);
#1237=ADVANCED_FACE('',(#67),#27,.T.);
#1238=ADVANCED_FACE('',(#68),#1196,.F.);
#1239=ADVANCED_FACE('',(#69),#28,.T.);
#1240=ADVANCED_FACE('',(#70),#1197,.F.);
#1241=ADVANCED_FACE('',(#71),#29,.T.);
#1242=ADVANCED_FACE('',(#72),#1198,.F.);
#1243=ADVANCED_FACE('',(#73),#30,.T.);
#1244=ADVANCED_FACE('',(#74),#1199,.F.);
#1245=ADVANCED_FACE('',(#75),#31,.T.);
#1246=ADVANCED_FACE('',(#76),#1200,.F.);
#1247=ADVANCED_FACE('',(#77),#32,.T.);
#1248=ADVANCED_FACE('',(#78),#1201,.F.);
#1249=ADVANCED_FACE('',(#79),#33,.T.);
#1250=ADVANCED_FACE('',(#80),#1202,.F.);
#1251=ADVANCED_FACE('',(#81),#1203,.T.);
#1252=ADVANCED_FACE('',(#82),#1204,.F.);
#1253=ADVANCED_FACE('',(#83),#1205,.T.);
#1254=ADVANCED_FACE('',(#84),#1206,.F.);
#1255=ADVANCED_FACE('',(#85),#34,.T.);
#1256=ADVANCED_FACE('',(#86),#1207,.F.);
#1257=ADVANCED_FACE('',(#87),#35,.T.);
#1258=ADVANCED_FACE('',(#88),#1208,.F.);
#1259=ADVANCED_FACE('',(#89),#36,.T.);
#1260=ADVANCED_FACE('',(#90),#1209,.F.);
#1261=ADVANCED_FACE('',(#91),#37,.T.);
#1262=ADVANCED_FACE('',(#92),#1210,.F.);
#1263=ADVANCED_FACE('',(#93),#1211,.F.);
#1264=ADVANCED_FACE('',(#94),#38,.T.);
#1265=ADVANCED_FACE('',(#95),#1212,.F.);
#1266=ADVANCED_FACE('',(#96),#1213,.F.);
#1267=ADVANCED_FACE('',(#97),#39,.T.);
#1268=ADVANCED_FACE('',(#98),#1214,.F.);
#1269=ADVANCED_FACE('',(#99),#40,.T.);
#1270=ADVANCED_FACE('',(#100),#41,.T.);
#1271=ADVANCED_FACE('',(#101),#42,.T.);
#1272=ADVANCED_FACE('',(#102),#1215,.T.);
#1273=ADVANCED_FACE('',(#103),#43,.T.);
#1274=ADVANCED_FACE('',(#104),#1216,.F.);
#1275=ADVANCED_FACE('',(#105),#44,.T.);
#1276=ADVANCED_FACE('',(#106),#1217,.F.);
#1277=ADVANCED_FACE('',(#107),#45,.T.);
#1278=ADVANCED_FACE('',(#108),#46,.T.);
#1279=ADVANCED_FACE('',(#109),#47,.T.);
#1280=ADVANCED_FACE('',(#110),#48,.T.);
#1281=ADVANCED_FACE('',(#111),#1218,.T.);
#1282=ADVANCED_FACE('',(#112),#49,.T.);
#1283=ADVANCED_FACE('',(#113),#1219,.T.);
#1284=CLOSED_SHELL('',(#1220,#1221,#1222,#1223,#1224,#1225,#1226,#1227,
#1228,#1229,#1230,#1231,#1232,#1233,#1234,#1235,#1236,#1237,#1238,#1239,
#1240,#1241,#1242,#1243,#1244,#1245,#1246,#1247,#1248,#1249,#1250,#1251,
#1252,#1253,#1254,#1255,#1256,#1257,#1258,#1259,#1260,#1261,#1262,#1263,
#1264,#1265,#1266,#1267,#1268,#1269,#1270,#1271,#1272,#1273,#1274,#1275,
#1276,#1277,#1278,#1279,#1280,#1281,#1282,#1283));
#1285=DERIVED_UNIT_ELEMENT(#1287,1.);
#1286=DERIVED_UNIT_ELEMENT(#2202,-3.);
#1287=(
MASS_UNIT()
NAMED_UNIT(*)
SI_UNIT(.KILO.,.GRAM.)
);
#1288=DERIVED_UNIT((#1285,#1286));
#1289=MEASURE_REPRESENTATION_ITEM('density measure',
POSITIVE_RATIO_MEASURE(7850.),#1288);
#1290=PROPERTY_DEFINITION_REPRESENTATION(#1295,#1292);
#1291=PROPERTY_DEFINITION_REPRESENTATION(#1296,#1293);
#1292=REPRESENTATION('material name',(#1294),#2199);
#1293=REPRESENTATION('density',(#1289),#2199);
#1294=DESCRIPTIVE_REPRESENTATION_ITEM('Steel','Steel');
#1295=PROPERTY_DEFINITION('material property','material name',#2209);
#1296=PROPERTY_DEFINITION('material property','density of part',#2209);
#1297=AXIS2_PLACEMENT_3D('',#1817,#1430,#1431);
#1298=AXIS2_PLACEMENT_3D('',#1818,#1432,#1433);
#1299=AXIS2_PLACEMENT_3D('',#1821,#1434,#1435);
#1300=AXIS2_PLACEMENT_3D('',#1825,#1437,#1438);
#1301=AXIS2_PLACEMENT_3D('',#1827,#1440,#1441);
#1302=AXIS2_PLACEMENT_3D('',#1829,#1442,#1443);
#1303=AXIS2_PLACEMENT_3D('',#1833,#1445,#1446);
#1304=AXIS2_PLACEMENT_3D('',#1835,#1447,#1448);
#1305=AXIS2_PLACEMENT_3D('',#1845,#1454,#1455);
#1306=AXIS2_PLACEMENT_3D('',#1847,#1456,#1457);
#1307=AXIS2_PLACEMENT_3D('',#1849,#1459,#1460);
#1308=AXIS2_PLACEMENT_3D('',#1853,#1462,#1463);
#1309=AXIS2_PLACEMENT_3D('',#1855,#1465,#1466);
#1310=AXIS2_PLACEMENT_3D('',#1866,#1472,#1473);
#1311=AXIS2_PLACEMENT_3D('',#1868,#1475,#1476);
#1312=AXIS2_PLACEMENT_3D('',#1870,#1478,#1479);
#1313=AXIS2_PLACEMENT_3D('',#1871,#1480,#1481);
#1314=AXIS2_PLACEMENT_3D('',#1874,#1482,#1483);
#1315=AXIS2_PLACEMENT_3D('',#1878,#1485,#1486);
#1316=AXIS2_PLACEMENT_3D('',#1880,#1488,#1489);
#1317=AXIS2_PLACEMENT_3D('',#1882,#1490,#1491);
#1318=AXIS2_PLACEMENT_3D('',#1885,#1493,#1494);
#1319=AXIS2_PLACEMENT_3D('',#1886,#1495,#1496);
#1320=AXIS2_PLACEMENT_3D('',#1888,#1497,#1498);
#1321=AXIS2_PLACEMENT_3D('',#1892,#1500,#1501);
#1322=AXIS2_PLACEMENT_3D('',#1896,#1503,#1504);
#1323=AXIS2_PLACEMENT_3D('',#1898,#1505,#1506);
#1324=AXIS2_PLACEMENT_3D('',#1900,#1507,#1508);
#1325=AXIS2_PLACEMENT_3D('',#1904,#1510,#1511);
#1326=AXIS2_PLACEMENT_3D('',#1910,#1514,#1515);
#1327=AXIS2_PLACEMENT_3D('',#1914,#1517,#1518);
#1328=AXIS2_PLACEMENT_3D('',#1918,#1520,#1521);
#1329=AXIS2_PLACEMENT_3D('',#1922,#1523,#1524);
#1330=AXIS2_PLACEMENT_3D('',#1926,#1526,#1527);
#1331=AXIS2_PLACEMENT_3D('',#1930,#1529,#1530);
#1332=AXIS2_PLACEMENT_3D('',#1936,#1533,#1534);
#1333=AXIS2_PLACEMENT_3D('',#1938,#1535,#1536);
#1334=AXIS2_PLACEMENT_3D('',#1942,#1538,#1539);
#1335=AXIS2_PLACEMENT_3D('',#1946,#1541,#1542);
#1336=AXIS2_PLACEMENT_3D('',#1949,#1544,#1545);
#1337=AXIS2_PLACEMENT_3D('',#1953,#1547,#1548);
#1338=AXIS2_PLACEMENT_3D('',#1957,#1550,#1551);
#1339=AXIS2_PLACEMENT_3D('',#1960,#1553,#1554);
#1340=AXIS2_PLACEMENT_3D('',#1962,#1555,#1556);
#1341=AXIS2_PLACEMENT_3D('',#1966,#1558,#1559);
#1342=AXIS2_PLACEMENT_3D('',#1970,#1561,#1562);
#1343=AXIS2_PLACEMENT_3D('',#1973,#1564,#1565);
#1344=AXIS2_PLACEMENT_3D('',#1978,#1567,#1568);
#1345=AXIS2_PLACEMENT_3D('',#1982,#1570,#1571);
#1346=AXIS2_PLACEMENT_3D('',#1986,#1573,#1574);
#1347=AXIS2_PLACEMENT_3D('',#1989,#1576,#1577);
#1348=AXIS2_PLACEMENT_3D('',#1990,#1578,#1579);
#1349=AXIS2_PLACEMENT_3D('',#1994,#1581,#1582);
#1350=AXIS2_PLACEMENT_3D('',#1998,#1584,#1585);
#1351=AXIS2_PLACEMENT_3D('',#2002,#1587,#1588);
#1352=AXIS2_PLACEMENT_3D('',#2004,#1589,#1590);
#1353=AXIS2_PLACEMENT_3D('',#2010,#1593,#1594);
#1354=AXIS2_PLACEMENT_3D('',#2014,#1596,#1597);
#1355=AXIS2_PLACEMENT_3D('',#2018,#1599,#1600);
#1356=AXIS2_PLACEMENT_3D('',#2022,#1602,#1603);
#1357=AXIS2_PLACEMENT_3D('',#2026,#1605,#1606);
#1358=AXIS2_PLACEMENT_3D('',#2030,#1608,#1609);
#1359=AXIS2_PLACEMENT_3D('',#2036,#1612,#1613);
#1360=AXIS2_PLACEMENT_3D('',#2040,#1615,#1616);
#1361=AXIS2_PLACEMENT_3D('',#2042,#1617,#1618);
#1362=AXIS2_PLACEMENT_3D('',#2044,#1619,#1620);
#1363=AXIS2_PLACEMENT_3D('',#2048,#1622,#1623);
#1364=AXIS2_PLACEMENT_3D('',#2051,#1625,#1626);
#1365=AXIS2_PLACEMENT_3D('',#2054,#1627,#1628);
#1366=AXIS2_PLACEMENT_3D('',#2058,#1630,#1631);
#1367=AXIS2_PLACEMENT_3D('',#2062,#1633,#1634);
#1368=AXIS2_PLACEMENT_3D('',#2066,#1636,#1637);
#1369=AXIS2_PLACEMENT_3D('',#2069,#1639,#1640);
#1370=AXIS2_PLACEMENT_3D('',#2073,#1642,#1643);
#1371=AXIS2_PLACEMENT_3D('',#2077,#1645,#1646);
#1372=AXIS2_PLACEMENT_3D('',#2080,#1648,#1649);
#1373=AXIS2_PLACEMENT_3D('',#2082,#1650,#1651);
#1374=AXIS2_PLACEMENT_3D('',#2084,#1652,#1653);
#1375=AXIS2_PLACEMENT_3D('',#2088,#1655,#1656);
#1376=AXIS2_PLACEMENT_3D('',#2092,#1658,#1659);
#1377=AXIS2_PLACEMENT_3D('',#2094,#1661,#1662);
#1378=AXIS2_PLACEMENT_3D('',#2097,#1665,#1666);
#1379=AXIS2_PLACEMENT_3D('',#2099,#1668,#1669);
#1380=AXIS2_PLACEMENT_3D('',#2102,#1672,#1673);
#1381=AXIS2_PLACEMENT_3D('',#2105,#1676,#1677);
#1382=AXIS2_PLACEMENT_3D('',#2107,#1679,#1680);
#1383=AXIS2_PLACEMENT_3D('',#2110,#1683,#1684);
#1384=AXIS2_PLACEMENT_3D('',#2112,#1686,#1687);
#1385=AXIS2_PLACEMENT_3D('',#2115,#1690,#1691);
#1386=AXIS2_PLACEMENT_3D('',#2117,#1693,#1694);
#1387=AXIS2_PLACEMENT_3D('',#2120,#1697,#1698);
#1388=AXIS2_PLACEMENT_3D('',#2121,#1699,#1700);
#1389=AXIS2_PLACEMENT_3D('',#2124,#1703,#1704);
#1390=AXIS2_PLACEMENT_3D('',#2126,#1706,#1707);
#1391=AXIS2_PLACEMENT_3D('',#2128,#1709,#1710);
#1392=AXIS2_PLACEMENT_3D('',#2130,#1712,#1713);
#1393=AXIS2_PLACEMENT_3D('',#2132,#1715,#1716);
#1394=AXIS2_PLACEMENT_3D('',#2134,#1718,#1719);
#1395=AXIS2_PLACEMENT_3D('',#2136,#1721,#1722);
#1396=AXIS2_PLACEMENT_3D('',#2137,#1723,#1724);
#1397=AXIS2_PLACEMENT_3D('',#2140,#1727,#1728);
#1398=AXIS2_PLACEMENT_3D('',#2142,#1730,#1731);
#1399=AXIS2_PLACEMENT_3D('',#2145,#1734,#1735);
#1400=AXIS2_PLACEMENT_3D('',#2147,#1737,#1738);
#1401=AXIS2_PLACEMENT_3D('',#2150,#1741,#1742);
#1402=AXIS2_PLACEMENT_3D('',#2151,#1743,#1744);
#1403=AXIS2_PLACEMENT_3D('',#2154,#1747,#1748);
#1404=AXIS2_PLACEMENT_3D('',#2156,#1750,#1751);
#1405=AXIS2_PLACEMENT_3D('',#2159,#1754,#1755);
#1406=AXIS2_PLACEMENT_3D('',#2160,#1756,#1757);
#1407=AXIS2_PLACEMENT_3D('',#2162,#1759,#1760);
#1408=AXIS2_PLACEMENT_3D('',#2163,#1761,#1762);
#1409=AXIS2_PLACEMENT_3D('',#2164,#1763,#1764);
#1410=AXIS2_PLACEMENT_3D('',#2166,#1766,#1767);
#1411=AXIS2_PLACEMENT_3D('',#2168,#1769,#1770);
#1412=AXIS2_PLACEMENT_3D('',#2170,#1772,#1773);
#1413=AXIS2_PLACEMENT_3D('',#2173,#1776,#1777);
#1414=AXIS2_PLACEMENT_3D('',#2174,#1778,#1779);
#1415=AXIS2_PLACEMENT_3D('',#2176,#1781,#1782);
#1416=AXIS2_PLACEMENT_3D('',#2177,#1783,#1784);
#1417=AXIS2_PLACEMENT_3D('',#2178,#1785,#1786);
#1418=AXIS2_PLACEMENT_3D('',#2179,#1787,#1788);
#1419=AXIS2_PLACEMENT_3D('',#2181,#1790,#1791);
#1420=AXIS2_PLACEMENT_3D('',#2182,#1792,#1793);
#1421=AXIS2_PLACEMENT_3D('',#2183,#1794,#1795);
#1422=AXIS2_PLACEMENT_3D('',#2185,#1797,#1798);
#1423=AXIS2_PLACEMENT_3D('',#2187,#1800,#1801);
#1424=AXIS2_PLACEMENT_3D('',#2188,#1802,#1803);
#1425=AXIS2_PLACEMENT_3D('',#2189,#1804,#1805);
#1426=AXIS2_PLACEMENT_3D('',#2190,#1806,#1807);
#1427=AXIS2_PLACEMENT_3D('',#2192,#1809,#1810);
#1428=AXIS2_PLACEMENT_3D('',#2194,#1812,#1813);
#1429=AXIS2_PLACEMENT_3D('',#2196,#1815,#1816);
#1430=DIRECTION('axis',(0.,0.,1.));
#1431=DIRECTION('refdir',(1.,0.,0.));
#1432=DIRECTION('center_axis',(0.,-1.,0.));
#1433=DIRECTION('ref_axis',(0.,0.,-1.));
#1434=DIRECTION('center_axis',(-1.3268561276895E-15,-1.,0.));
#1435=DIRECTION('ref_axis',(0.,0.,-1.));
#1436=DIRECTION('',(0.,-1.,0.));
#1437=DIRECTION('center_axis',(0.,1.,0.));
#1438=DIRECTION('ref_axis',(0.,0.,-1.));
#1439=DIRECTION('',(0.,1.,0.));
#1440=DIRECTION('center_axis',(0.,-1.,0.));
#1441=DIRECTION('ref_axis',(1.,0.,0.));
#1442=DIRECTION('center_axis',(0.,-1.,0.));
#1443=DIRECTION('ref_axis',(0.707106781186549,0.,-0.707106781186546));
#1444=DIRECTION('',(-1.,0.,0.));
#1445=DIRECTION('center_axis',(0.,-1.,0.));
#1446=DIRECTION('ref_axis',(-0.707106781186546,0.,-0.707106781186549));
#1447=DIRECTION('center_axis',(0.,1.,0.));
#1448=DIRECTION('ref_axis',(0.,0.,-1.));
#1449=DIRECTION('',(1.,0.,0.));
#1450=DIRECTION('',(0.,0.,1.));
#1451=DIRECTION('',(1.,0.,0.));
#1452=DIRECTION('',(0.,0.,-1.));
#1453=DIRECTION('',(1.,0.,0.));
#1454=DIRECTION('center_axis',(0.,1.,0.));
#1455=DIRECTION('ref_axis',(0.707106781186549,0.,-0.707106781186546));
#1456=DIRECTION('center_axis',(1.3268561276895E-15,1.,0.));
#1457=DIRECTION('ref_axis',(0.707106781186549,0.,-0.707106781186546));
#1458=DIRECTION('',(0.,-1.,0.));
#1459=DIRECTION('center_axis',(0.,1.,0.));
#1460=DIRECTION('ref_axis',(0.,0.,-1.));
#1461=DIRECTION('',(0.,1.,0.));
#1462=DIRECTION('center_axis',(-1.3268561276895E-15,-1.,0.));
#1463=DIRECTION('ref_axis',(0.,0.,-1.));
#1464=DIRECTION('',(0.,-1.,0.));
#1465=DIRECTION('center_axis',(1.3268561276895E-15,1.,0.));
#1466=DIRECTION('ref_axis',(-1.,1.3268561276895E-15,0.));
#1467=DIRECTION('',(-1.,1.3268561276895E-15,0.));
#1468=DIRECTION('',(0.,0.,1.));
#1469=DIRECTION('',(-1.,1.3268561276895E-15,0.));
#1470=DIRECTION('',(0.,0.,-1.));
#1471=DIRECTION('',(-1.,1.3268561276895E-15,0.));
#1472=DIRECTION('center_axis',(1.3268561276895E-15,1.,0.));
#1473=DIRECTION('ref_axis',(-0.707106781186546,0.,-0.707106781186549));
#1474=DIRECTION('',(1.,-1.3268561276895E-15,0.));
#1475=DIRECTION('center_axis',(0.,1.,0.));
#1476=DIRECTION('ref_axis',(-0.707106781186546,0.,-0.707106781186549));
#1477=DIRECTION('',(0.,1.,0.));
#1478=DIRECTION('center_axis',(0.,0.,-1.));
#1479=DIRECTION('ref_axis',(-1.,0.,0.));
#1480=DIRECTION('center_axis',(0.,0.,1.));
#1481=DIRECTION('ref_axis',(0.901041518310951,0.433732846669348,0.));
#1482=DIRECTION('center_axis',(0.,0.,1.));
#1483=DIRECTION('ref_axis',(0.901041518310951,0.433732846669348,0.));
#1484=DIRECTION('',(0.,0.,1.));
#1485=DIRECTION('center_axis',(0.,0.,-1.));
#1486=DIRECTION('ref_axis',(0.901041518310951,0.433732846669348,0.));
#1487=DIRECTION('',(0.,0.,-1.));
#1488=DIRECTION('center_axis',(0.,0.,1.));
#1489=DIRECTION('ref_axis',(0.995502350950475,0.094736842105262,0.));
#1490=DIRECTION('center_axis',(0.,0.,-1.));
#1491=DIRECTION('ref_axis',(0.995502350950475,0.094736842105262,0.));
#1492=DIRECTION('',(0.,0.,1.));
#1493=DIRECTION('center_axis',(0.,0.,1.));
#1494=DIRECTION('ref_axis',(0.995502350950475,0.094736842105262,0.));
#1495=DIRECTION('center_axis',(0.,0.,1.));
#1496=DIRECTION('ref_axis',(-1.,0.,0.));
#1497=DIRECTION('center_axis',(0.,0.,-1.));
#1498=DIRECTION('ref_axis',(1.,-1.77635683940024E-15,0.));
#1499=DIRECTION('',(0.,-1.,0.));
#1500=DIRECTION('center_axis',(0.,0.,-1.));
#1501=DIRECTION('ref_axis',(0.707106781186546,-0.707106781186549,0.));
#1502=DIRECTION('',(0.,1.,0.));
#1503=DIRECTION('center_axis',(0.,0.,1.));
#1504=DIRECTION('ref_axis',(-1.,0.,0.));
#1505=DIRECTION('center_axis',(0.,0.,1.));
#1506=DIRECTION('ref_axis',(-0.605930818817681,-0.795517342869994,0.));
#1507=DIRECTION('center_axis',(0.,0.,1.));
#1508=DIRECTION('ref_axis',(0.932354859853658,0.361544485931214,0.));
#1509=DIRECTION('',(-1.,0.,0.));
#1510=DIRECTION('center_axis',(0.,0.,1.));
#1511=DIRECTION('ref_axis',(-0.707106781186547,-0.707106781186548,0.));
#1512=DIRECTION('',(0.,1.,0.));
#1513=DIRECTION('',(-0.000196078427604142,0.999999980776625,0.));
#1514=DIRECTION('center_axis',(0.,0.,-1.));
#1515=DIRECTION('ref_axis',(0.707037453595066,0.70717610198154,0.));
#1516=DIRECTION('',(-1.,-3.94797566776675E-15,0.));
#1517=DIRECTION('center_axis',(0.,0.,1.));
#1518=DIRECTION('ref_axis',(-0.707106781186548,-0.707106781186548,0.));
#1519=DIRECTION('',(1.72977349959116E-15,1.,0.));
#1520=DIRECTION('center_axis',(0.,0.,1.));
#1521=DIRECTION('ref_axis',(1.,-1.42108547152022E-14,0.));
#1522=DIRECTION('',(-1.,-4.93432455388959E-16,0.));
#1523=DIRECTION('center_axis',(0.,0.,1.));
#1524=DIRECTION('ref_axis',(-5.32907051820075E-15,1.,0.));
#1525=DIRECTION('',(-3.10862446895042E-15,-1.,0.));
#1526=DIRECTION('center_axis',(0.,0.,1.));
#1527=DIRECTION('ref_axis',(0.707106781186548,-0.707106781186547,0.));
#1528=DIRECTION('',(-1.,1.71905500587121E-15,0.));
#1529=DIRECTION('center_axis',(0.,0.,-1.));
#1530=DIRECTION('ref_axis',(-0.707037453595069,0.707176101981537,0.));
#1531=DIRECTION('',(-0.00019607842760233,-0.999999980776625,0.));
#1532=DIRECTION('',(0.,-1.,0.));
#1533=DIRECTION('center_axis',(0.,0.,1.));
#1534=DIRECTION('ref_axis',(0.829340806194213,-0.55874307797156,0.));
#1535=DIRECTION('center_axis',(0.,0.,1.));
#1536=DIRECTION('ref_axis',(-3.28954970259306E-16,1.,0.));
#1537=DIRECTION('',(5.72999738932929E-16,-1.,0.));
#1538=DIRECTION('center_axis',(0.,0.,-1.));
#1539=DIRECTION('ref_axis',(0.707106781186548,-0.707106781186547,0.));
#1540=DIRECTION('',(-5.73018335290389E-16,1.,0.));
#1541=DIRECTION('center_axis',(0.,0.,-1.));
#1542=DIRECTION('ref_axis',(-3.5059674461847E-16,1.,0.));
#1543=DIRECTION('',(1.,0.,0.));
#1544=DIRECTION('center_axis',(0.,0.,1.));
#1545=DIRECTION('ref_axis',(0.70710678118655,0.707106781186545,0.));
#1546=DIRECTION('',(0.,-1.,0.));
#1547=DIRECTION('center_axis',(0.,0.,1.));
#1548=DIRECTION('ref_axis',(0.707106781186547,-0.707106781186548,0.));
#1549=DIRECTION('',(-1.,0.,0.));
#1550=DIRECTION('center_axis',(0.,0.,1.));
#1551=DIRECTION('ref_axis',(-0.707106781186548,-0.707106781186547,0.));
#1552=DIRECTION('',(0.,1.,0.));
#1553=DIRECTION('center_axis',(0.,0.,1.));
#1554=DIRECTION('ref_axis',(-0.707106781186548,0.707106781186547,0.));
#1555=DIRECTION('center_axis',(0.,0.,1.));
#1556=DIRECTION('ref_axis',(-0.707176101981539,-0.707037453595067,0.));
#1557=DIRECTION('',(0.00019607842760233,0.999999980776625,0.));
#1558=DIRECTION('center_axis',(0.,0.,1.));
#1559=DIRECTION('ref_axis',(-0.707037453595075,0.707176101981531,0.));
#1560=DIRECTION('',(1.,3.55299231754442E-15,0.));
#1561=DIRECTION('center_axis',(0.,0.,1.));
#1562=DIRECTION('ref_axis',(0.707037453595074,0.707176101981532,0.));
#1563=DIRECTION('',(0.000196078427604121,-0.999999980776625,0.));
#1564=DIRECTION('center_axis',(0.,0.,1.));
#1565=DIRECTION('ref_axis',(0.707176101981539,-0.707037453595067,0.));
#1566=DIRECTION('',(1.,5.3828995133341E-16,0.));
#1567=DIRECTION('center_axis',(0.,0.,1.));
#1568=DIRECTION('ref_axis',(0.707106781186551,0.707106781186544,0.));
#1569=DIRECTION('',(-1.29733012469337E-15,-1.,0.));
#1570=DIRECTION('center_axis',(0.,0.,1.));
#1571=DIRECTION('ref_axis',(0.707106781186551,-0.707106781186544,0.));
#1572=DIRECTION('',(-1.,1.71905500587121E-15,0.));
#1573=DIRECTION('center_axis',(0.,0.,1.));
#1574=DIRECTION('ref_axis',(-0.707106781186551,-0.707106781186544,0.));
#1575=DIRECTION('',(3.13474736364748E-15,1.,0.));
#1576=DIRECTION('center_axis',(0.,0.,1.));
#1577=DIRECTION('ref_axis',(-0.707106781186549,0.707106781186546,0.));
#1578=DIRECTION('center_axis',(0.,0.,1.));
#1579=DIRECTION('ref_axis',(-1.,0.,0.));
#1580=DIRECTION('',(1.,0.,0.));
#1581=DIRECTION('center_axis',(0.,0.,1.));
#1582=DIRECTION('ref_axis',(-3.5059674461847E-16,1.,0.));
#1583=DIRECTION('',(-5.73018335290389E-16,1.,0.));
#1584=DIRECTION('center_axis',(0.,0.,1.));
#1585=DIRECTION('ref_axis',(-0.707106781186546,-0.707106781186549,0.));
#1586=DIRECTION('',(-5.72999738932929E-16,1.,0.));
#1587=DIRECTION('center_axis',(0.,0.,1.));
#1588=DIRECTION('ref_axis',(-3.28954970259306E-16,1.,0.));
#1589=DIRECTION('center_axis',(0.,0.,-1.));
#1590=DIRECTION('ref_axis',(0.829340806194213,-0.55874307797156,0.));
#1591=DIRECTION('',(0.,-1.,0.));
#1592=DIRECTION('',(-0.00019607842760233,-0.999999980776625,0.));
#1593=DIRECTION('center_axis',(0.,0.,1.));
#1594=DIRECTION('ref_axis',(-0.707037453595069,0.707176101981537,0.));
#1595=DIRECTION('',(-1.,1.71905500587121E-15,0.));
#1596=DIRECTION('center_axis',(0.,0.,-1.));
#1597=DIRECTION('ref_axis',(0.707106781186548,-0.707106781186547,0.));
#1598=DIRECTION('',(-3.10862446895042E-15,-1.,0.));
#1599=DIRECTION('center_axis',(0.,0.,1.));
#1600=DIRECTION('ref_axis',(-5.32907051820075E-15,1.,0.));
#1601=DIRECTION('',(-1.,-4.93432455388959E-16,0.));
#1602=DIRECTION('center_axis',(0.,0.,1.));
#1603=DIRECTION('ref_axis',(1.,-1.42108547152022E-14,0.));
#1604=DIRECTION('',(-1.72977349959116E-15,-1.,0.));
#1605=DIRECTION('center_axis',(0.,0.,-1.));
#1606=DIRECTION('ref_axis',(-0.707106781186548,-0.707106781186548,0.));
#1607=DIRECTION('',(1.,3.94797566776675E-15,0.));
#1608=DIRECTION('center_axis',(0.,0.,1.));
#1609=DIRECTION('ref_axis',(0.707037453595066,0.70717610198154,0.));
#1610=DIRECTION('',(-0.000196078427604142,0.999999980776625,0.));
#1611=DIRECTION('',(0.,-1.,0.));
#1612=DIRECTION('center_axis',(0.,0.,-1.));
#1613=DIRECTION('ref_axis',(-0.707106781186547,-0.707106781186548,0.));
#1614=DIRECTION('',(1.,0.,0.));
#1615=DIRECTION('center_axis',(0.,0.,1.));
#1616=DIRECTION('ref_axis',(0.932354859853658,0.361544485931214,0.));
#1617=DIRECTION('center_axis',(0.,0.,-1.));
#1618=DIRECTION('ref_axis',(-0.605930818817681,-0.795517342869994,0.));
#1619=DIRECTION('center_axis',(0.,0.,1.));
#1620=DIRECTION('ref_axis',(-1.,0.,0.));
#1621=DIRECTION('',(0.,1.,0.));
#1622=DIRECTION('center_axis',(0.,0.,1.));
#1623=DIRECTION('ref_axis',(0.707106781186546,-0.707106781186549,0.));
#1624=DIRECTION('',(0.,-1.,0.));
#1625=DIRECTION('center_axis',(0.,0.,1.));
#1626=DIRECTION('ref_axis',(1.,-1.77635683940024E-15,0.));
#1627=DIRECTION('center_axis',(0.,0.,-1.));
#1628=DIRECTION('ref_axis',(-0.707106781186549,0.707106781186546,0.));
#1629=DIRECTION('',(3.13474736364748E-15,1.,0.));
#1630=DIRECTION('center_axis',(0.,0.,-1.));
#1631=DIRECTION('ref_axis',(-0.707106781186551,-0.707106781186544,0.));
#1632=DIRECTION('',(-1.,1.71905500587121E-15,0.));
#1633=DIRECTION('center_axis',(0.,0.,-1.));
#1634=DIRECTION('ref_axis',(0.707106781186551,-0.707106781186544,0.));
#1635=DIRECTION('',(-1.29733012469337E-15,-1.,0.));
#1636=DIRECTION('center_axis',(0.,0.,-1.));
#1637=DIRECTION('ref_axis',(0.707106781186551,0.707106781186544,0.));
#1638=DIRECTION('',(1.,5.3828995133341E-16,0.));
#1639=DIRECTION('center_axis',(0.,0.,-1.));
#1640=DIRECTION('ref_axis',(0.707176101981539,-0.707037453595067,0.));
#1641=DIRECTION('',(0.000196078427604121,-0.999999980776625,0.));
#1642=DIRECTION('center_axis',(0.,0.,-1.));
#1643=DIRECTION('ref_axis',(0.707037453595074,0.707176101981532,0.));
#1644=DIRECTION('',(1.,3.55299231754442E-15,0.));
#1645=DIRECTION('center_axis',(0.,0.,-1.));
#1646=DIRECTION('ref_axis',(-0.707037453595075,0.707176101981531,0.));
#1647=DIRECTION('',(0.00019607842760233,0.999999980776625,0.));
#1648=DIRECTION('center_axis',(0.,0.,-1.));
#1649=DIRECTION('ref_axis',(-0.707176101981539,-0.707037453595067,0.));
#1650=DIRECTION('center_axis',(0.,0.,-1.));
#1651=DIRECTION('ref_axis',(0.70710678118655,0.707106781186545,0.));
#1652=DIRECTION('center_axis',(0.,0.,-1.));
#1653=DIRECTION('ref_axis',(-0.707106781186548,0.707106781186547,0.));
#1654=DIRECTION('',(0.,1.,0.));
#1655=DIRECTION('center_axis',(0.,0.,-1.));
#1656=DIRECTION('ref_axis',(-0.707106781186548,-0.707106781186547,0.));
#1657=DIRECTION('',(-1.,0.,0.));
#1658=DIRECTION('center_axis',(0.,0.,-1.));
#1659=DIRECTION('ref_axis',(0.707106781186547,-0.707106781186548,0.));
#1660=DIRECTION('',(0.,-1.,0.));
#1661=DIRECTION('center_axis',(0.,0.,1.));
#1662=DIRECTION('ref_axis',(-0.707106781186546,-0.707106781186549,0.));
#1663=DIRECTION('',(0.,0.,-1.));
#1664=DIRECTION('',(0.,0.,1.));
#1665=DIRECTION('center_axis',(-1.,0.,0.));
#1666=DIRECTION('ref_axis',(0.,-1.,0.));
#1667=DIRECTION('',(0.,0.,1.));
#1668=DIRECTION('center_axis',(0.,0.,1.));
#1669=DIRECTION('ref_axis',(0.707106781186548,-0.707106781186547,0.));
#1670=DIRECTION('',(0.,0.,-1.));
#1671=DIRECTION('',(0.,0.,1.));
#1672=DIRECTION('center_axis',(0.,0.,1.));
#1673=DIRECTION('ref_axis',(0.707037453595066,0.70717610198154,0.));
#1674=DIRECTION('',(0.,0.,-1.));
#1675=DIRECTION('',(0.,0.,1.));
#1676=DIRECTION('center_axis',(0.999999980776625,0.000196078427604142,0.));
#1677=DIRECTION('ref_axis',(-0.000196078427604142,0.999999980776625,0.));
#1678=DIRECTION('',(0.,0.,1.));
#1679=DIRECTION('center_axis',(0.,0.,1.));
#1680=DIRECTION('ref_axis',(-0.707037453595069,0.707176101981537,0.));
#1681=DIRECTION('',(0.,0.,-1.));
#1682=DIRECTION('',(0.,0.,1.));
#1683=DIRECTION('center_axis',(-0.999999980776625,0.00019607842760233,0.));
#1684=DIRECTION('ref_axis',(-0.00019607842760233,-0.999999980776625,0.));
#1685=DIRECTION('',(0.,0.,1.));
#1686=DIRECTION('center_axis',(0.,0.,1.));
#1687=DIRECTION('ref_axis',(-0.707106781186548,-0.707106781186548,0.));
#1688=DIRECTION('',(0.,0.,1.));
#1689=DIRECTION('',(0.,0.,-1.));
#1690=DIRECTION('center_axis',(1.,-1.72977349959116E-15,0.));
#1691=DIRECTION('ref_axis',(1.72977349959116E-15,1.,0.));
#1692=DIRECTION('',(0.,0.,1.));
#1693=DIRECTION('center_axis',(0.,0.,1.));
#1694=DIRECTION('ref_axis',(0.707106781186548,-0.707106781186547,0.));
#1695=DIRECTION('',(0.,0.,1.));
#1696=DIRECTION('',(0.,0.,-1.));
#1697=DIRECTION('center_axis',(1.71905500587121E-15,1.,0.));
#1698=DIRECTION('ref_axis',(-1.,1.71905500587121E-15,0.));
#1699=DIRECTION('center_axis',(0.,0.,1.));
#1700=DIRECTION('ref_axis',(0.707106781186551,-0.707106781186544,0.));
#1701=DIRECTION('',(0.,0.,1.));
#1702=DIRECTION('',(0.,0.,-1.));
#1703=DIRECTION('center_axis',(1.71905500587121E-15,1.,0.));
#1704=DIRECTION('ref_axis',(-1.,1.71905500587121E-15,0.));
#1705=DIRECTION('',(0.,0.,-1.));
#1706=DIRECTION('center_axis',(0.,0.,1.));
#1707=DIRECTION('ref_axis',(-0.707106781186551,-0.707106781186544,0.));
#1708=DIRECTION('',(0.,0.,1.));
#1709=DIRECTION('center_axis',(1.,-3.13474736364748E-15,0.));
#1710=DIRECTION('ref_axis',(3.13474736364748E-15,1.,0.));
#1711=DIRECTION('',(0.,0.,-1.));
#1712=DIRECTION('center_axis',(0.,0.,1.));
#1713=DIRECTION('ref_axis',(-0.707106781186549,0.707106781186546,0.));
#1714=DIRECTION('',(0.,0.,1.));
#1715=DIRECTION('center_axis',(5.3828995133341E-16,-1.,0.));
#1716=DIRECTION('ref_axis',(1.,5.3828995133341E-16,0.));
#1717=DIRECTION('',(0.,0.,-1.));
#1718=DIRECTION('center_axis',(0.,0.,1.));
#1719=DIRECTION('ref_axis',(0.707106781186551,0.707106781186544,0.));
#1720=DIRECTION('',(0.,0.,1.));
#1721=DIRECTION('center_axis',(-1.,1.29733012469337E-15,0.));
#1722=DIRECTION('ref_axis',(-1.29733012469337E-15,-1.,0.));
#1723=DIRECTION('center_axis',(0.,0.,1.));
#1724=DIRECTION('ref_axis',(0.829340806194213,-0.55874307797156,0.));
#1725=DIRECTION('',(0.,0.,1.));
#1726=DIRECTION('',(0.,0.,-1.));
#1727=DIRECTION('center_axis',(0.,0.,1.));
#1728=DIRECTION('ref_axis',(-3.28954970259306E-16,1.,0.));
#1729=DIRECTION('',(0.,0.,1.));
#1730=DIRECTION('center_axis',(0.,0.,1.));
#1731=DIRECTION('ref_axis',(-0.605930818817681,-0.795517342869994,0.));
#1732=DIRECTION('',(0.,0.,1.));
#1733=DIRECTION('',(0.,0.,-1.));
#1734=DIRECTION('center_axis',(0.,0.,1.));
#1735=DIRECTION('ref_axis',(0.932354859853658,0.361544485931214,0.));
#1736=DIRECTION('',(0.,0.,1.));
#1737=DIRECTION('center_axis',(0.,0.,1.));
#1738=DIRECTION('ref_axis',(-0.707106781186547,-0.707106781186548,0.));
#1739=DIRECTION('',(0.,0.,1.));
#1740=DIRECTION('',(0.,0.,-1.));
#1741=DIRECTION('center_axis',(1.,0.,0.));
#1742=DIRECTION('ref_axis',(0.,1.,0.));
#1743=DIRECTION('center_axis',(0.,0.,1.));
#1744=DIRECTION('ref_axis',(-0.707106781186548,-0.707106781186547,0.));
#1745=DIRECTION('',(0.,0.,1.));
#1746=DIRECTION('',(0.,0.,-1.));
#1747=DIRECTION('center_axis',(1.,0.,0.));
#1748=DIRECTION('ref_axis',(0.,1.,0.));
#1749=DIRECTION('',(0.,0.,-1.));
#1750=DIRECTION('center_axis',(0.,0.,1.));
#1751=DIRECTION('ref_axis',(0.707106781186547,-0.707106781186548,0.));
#1752=DIRECTION('',(0.,0.,1.));
#1753=DIRECTION('',(0.,0.,-1.));
#1754=DIRECTION('center_axis',(0.,1.,0.));
#1755=DIRECTION('ref_axis',(-1.,0.,0.));
#1756=DIRECTION('center_axis',(0.,0.,1.));
#1757=DIRECTION('ref_axis',(0.70710678118655,0.707106781186545,0.));
#1758=DIRECTION('',(0.,0.,1.));
#1759=DIRECTION('center_axis',(-1.,0.,0.));
#1760=DIRECTION('ref_axis',(0.,-1.,0.));
#1761=DIRECTION('center_axis',(0.,0.,1.));
#1762=DIRECTION('ref_axis',(-0.707106781186548,0.707106781186547,0.));
#1763=DIRECTION('center_axis',(0.,0.,1.));
#1764=DIRECTION('ref_axis',(-0.707176101981539,-0.707037453595067,0.));
#1765=DIRECTION('',(0.,0.,1.));
#1766=DIRECTION('center_axis',(0.999999980776625,-0.00019607842760233,0.));
#1767=DIRECTION('ref_axis',(0.00019607842760233,0.999999980776625,0.));
#1768=DIRECTION('',(0.,0.,-1.));
#1769=DIRECTION('center_axis',(0.,0.,1.));
#1770=DIRECTION('ref_axis',(0.707176101981539,-0.707037453595067,0.));
#1771=DIRECTION('',(0.,0.,-1.));
#1772=DIRECTION('center_axis',(0.,0.,1.));
#1773=DIRECTION('ref_axis',(0.707037453595074,0.707176101981532,0.));
#1774=DIRECTION('',(0.,0.,1.));
#1775=DIRECTION('',(0.,0.,-1.));
#1776=DIRECTION('center_axis',(-0.999999980776625,-0.000196078427604121,
0.));
#1777=DIRECTION('ref_axis',(0.000196078427604121,-0.999999980776625,0.));
#1778=DIRECTION('center_axis',(0.,0.,1.));
#1779=DIRECTION('ref_axis',(-0.707037453595075,0.707176101981531,0.));
#1780=DIRECTION('',(0.,0.,1.));
#1781=DIRECTION('center_axis',(3.55299231754442E-15,-1.,0.));
#1782=DIRECTION('ref_axis',(1.,3.55299231754442E-15,0.));
#1783=DIRECTION('center_axis',(-3.94797566776675E-15,1.,0.));
#1784=DIRECTION('ref_axis',(-1.,-3.94797566776675E-15,0.));
#1785=DIRECTION('center_axis',(0.,1.,0.));
#1786=DIRECTION('ref_axis',(-1.,0.,0.));
#1787=DIRECTION('center_axis',(0.,0.,1.));
#1788=DIRECTION('ref_axis',(-1.,0.,0.));
#1789=DIRECTION('',(0.,0.,1.));
#1790=DIRECTION('center_axis',(1.,0.,0.));
#1791=DIRECTION('ref_axis',(0.,1.,0.));
#1792=DIRECTION('center_axis',(0.,0.,1.));
#1793=DIRECTION('ref_axis',(1.,-1.77635683940024E-15,0.));
#1794=DIRECTION('center_axis',(0.,-1.,0.));
#1795=DIRECTION('ref_axis',(1.,0.,0.));
#1796=DIRECTION('',(0.,0.,1.));
#1797=DIRECTION('center_axis',(0.,0.,1.));
#1798=DIRECTION('ref_axis',(-3.5059674461847E-16,1.,0.));
#1799=DIRECTION('',(0.,0.,1.));
#1800=DIRECTION('center_axis',(1.,5.73018335290389E-16,0.));
#1801=DIRECTION('ref_axis',(-5.73018335290389E-16,1.,0.));
#1802=DIRECTION('center_axis',(-1.,-5.72999738932929E-16,0.));
#1803=DIRECTION('ref_axis',(5.72999738932929E-16,-1.,0.));
#1804=DIRECTION('center_axis',(-1.,0.,0.));
#1805=DIRECTION('ref_axis',(0.,-1.,0.));
#1806=DIRECTION('center_axis',(-1.,3.10862446895042E-15,0.));
#1807=DIRECTION('ref_axis',(-3.10862446895042E-15,-1.,0.));
#1808=DIRECTION('',(0.,0.,1.));
#1809=DIRECTION('center_axis',(0.,0.,1.));
#1810=DIRECTION('ref_axis',(-5.32907051820075E-15,1.,0.));
#1811=DIRECTION('',(0.,0.,1.));
#1812=DIRECTION('center_axis',(-4.93432455388959E-16,1.,0.));
#1813=DIRECTION('ref_axis',(-1.,-4.93432455388959E-16,0.));
#1814=DIRECTION('',(0.,0.,1.));
#1815=DIRECTION('center_axis',(0.,0.,1.));
#1816=DIRECTION('ref_axis',(1.,-1.42108547152022E-14,0.));
#1817=CARTESIAN_POINT('',(0.,0.,0.));
#1818=CARTESIAN_POINT('Origin',(37.03649083331,7.88069688129655,-6.7));
#1819=CARTESIAN_POINT('',(37.03649083331,9.88069688129651,-5.7));
#1820=CARTESIAN_POINT('',(36.0682450132061,9.88069688129651,-6.44999993629754));
#1821=CARTESIAN_POINT('Origin',(37.03649083331,9.88069688129651,-6.7));
#1822=CARTESIAN_POINT('',(36.0682450132061,7.88069688129655,-6.44999993629754));
#1823=CARTESIAN_POINT('',(36.0682450132061,7.88069688129655,-6.44999993629754));
#1824=CARTESIAN_POINT('',(37.03649083331,7.88069688129655,-5.7));
#1825=CARTESIAN_POINT('Origin',(37.03649083331,7.88069688129655,-6.7));
#1826=CARTESIAN_POINT('',(37.03649083331,7.88069688129655,-5.7));
#1827=CARTESIAN_POINT('Origin',(3.08939651661706,7.88069688129655,-8.7));
#1828=CARTESIAN_POINT('',(35.0999991931021,7.88069688129655,-7.19999987259507));
#1829=CARTESIAN_POINT('Origin',(35.0999991931021,7.88069688129655,-6.19999987259507));
#1830=CARTESIAN_POINT('',(33.0999991931021,7.88069688129655,-7.19999987259507));
#1831=CARTESIAN_POINT('',(19.5946978548596,7.88069688129655,-7.19999987259507));
#1832=CARTESIAN_POINT('',(32.1317533729982,7.88069688129655,-6.44999993629754));
#1833=CARTESIAN_POINT('Origin',(33.0999991931021,7.88069688129655,-6.19999987259507));
#1834=CARTESIAN_POINT('',(31.1635075528942,7.88069688129655,-5.7));
#1835=CARTESIAN_POINT('Origin',(31.1635075528942,7.88069688129655,-6.7));
#1836=CARTESIAN_POINT('',(4.08939651661706,7.88069688129655,-5.7));
#1837=CARTESIAN_POINT('',(36.5995926142718,7.88069688129655,-5.7));
#1838=CARTESIAN_POINT('',(4.08939651661706,7.88069688129655,-8.7));
#1839=CARTESIAN_POINT('',(4.08939651661706,7.88069688129655,-8.7));
#1840=CARTESIAN_POINT('',(38.1097887119266,7.88069688129655,-8.7));
#1841=CARTESIAN_POINT('',(36.5995926142718,7.88069688129655,-8.7));
#1842=CARTESIAN_POINT('',(38.1097887119266,7.88069688129655,-5.7));
#1843=CARTESIAN_POINT('',(38.1097887119266,7.88069688129655,-8.7));
#1844=CARTESIAN_POINT('',(36.5995926142718,7.88069688129655,-5.7));
#1845=CARTESIAN_POINT('Origin',(35.0999991931021,7.88069688129655,-6.19999987259507));
#1846=CARTESIAN_POINT('',(35.0999991931021,9.88069688129652,-7.19999987259507));
#1847=CARTESIAN_POINT('Origin',(35.0999991931021,9.88069688129651,-6.19999987259507));
#1848=CARTESIAN_POINT('',(35.0999991931021,7.88069688129655,-7.19999987259507));
#1849=CARTESIAN_POINT('Origin',(31.1635075528942,7.88069688129655,-6.7));
#1850=CARTESIAN_POINT('',(32.1317533729982,9.88069688129651,-6.44999993629754));
#1851=CARTESIAN_POINT('',(32.1317533729982,7.88069688129655,-6.44999993629754));
#1852=CARTESIAN_POINT('',(31.1635075528942,9.88069688129652,-5.7));
#1853=CARTESIAN_POINT('Origin',(31.1635075528942,9.88069688129651,-6.7));
#1854=CARTESIAN_POINT('',(31.1635075528942,7.88069688129655,-5.7));
#1855=CARTESIAN_POINT('Origin',(39.1097887119266,9.88069688129651,-8.7));
#1856=CARTESIAN_POINT('',(38.1095926142718,9.88069688129651,-5.7));
#1857=CARTESIAN_POINT('',(3.08939651661706,9.88069688129656,-5.7));
#1858=CARTESIAN_POINT('',(38.1095926142718,9.88069688129651,-8.7));
#1859=CARTESIAN_POINT('',(38.1095926142718,9.88069688129651,-8.7));
#1860=CARTESIAN_POINT('',(4.08959261427181,9.88069688129656,-8.7));
#1861=CARTESIAN_POINT('',(3.08939651661706,9.88069688129656,-8.7));
#1862=CARTESIAN_POINT('',(4.08959261427181,9.88069688129656,-5.7));
#1863=CARTESIAN_POINT('',(4.08959261427181,9.88069688129656,-8.7));
#1864=CARTESIAN_POINT('',(3.08939651661706,9.88069688129656,-5.7));
#1865=CARTESIAN_POINT('',(33.0999991931021,9.88069688129652,-7.19999987259507));
#1866=CARTESIAN_POINT('Origin',(33.0999991931021,9.88069688129651,-6.19999987259507));
#1867=CARTESIAN_POINT('',(37.6048939525143,9.88069688129651,-7.19999987259507));
#1868=CARTESIAN_POINT('Origin',(33.0999991931021,7.88069688129655,-6.19999987259507));
#1869=CARTESIAN_POINT('',(33.0999991931021,7.88069688129655,-7.19999987259507));
#1870=CARTESIAN_POINT('Origin',(36.0999991931021,7.88069688129655,-7.19999987259507));
#1871=CARTESIAN_POINT('Origin',(49.1330717669099,-13.5885704383125,-8.7));
#1872=CARTESIAN_POINT('',(46.429947211977,-14.8897689783206,-8.7));
#1873=CARTESIAN_POINT('',(48.5968508031408,-16.5402592901421,-8.7));
#1874=CARTESIAN_POINT('Origin',(49.1330717669099,-13.5885704383125,-8.7));
#1875=CARTESIAN_POINT('',(48.5968508031408,-16.5402592901421,-5.7));
#1876=CARTESIAN_POINT('',(48.5968508031408,-16.540259290142,-8.7));
#1877=CARTESIAN_POINT('',(46.429947211977,-14.8897689783206,-5.7));
#1878=CARTESIAN_POINT('Origin',(49.1330717669099,-13.5885704383125,-5.7));
#1879=CARTESIAN_POINT('',(46.429947211977,-14.8897689783206,-8.7));
#1880=CARTESIAN_POINT('Origin',(42.15,-16.95,-8.7));
#1881=CARTESIAN_POINT('',(42.15,-12.2,-5.7));
#1882=CARTESIAN_POINT('Origin',(42.15,-16.95,-5.7));
#1883=CARTESIAN_POINT('',(42.15,-12.2,-8.7));
#1884=CARTESIAN_POINT('',(42.15,-12.2,-8.7));
#1885=CARTESIAN_POINT('Origin',(42.15,-16.95,-8.7));
#1886=CARTESIAN_POINT('Origin',(24.45,29.075,-5.7));
#1887=CARTESIAN_POINT('',(50.65,-19.,-5.7));
#1888=CARTESIAN_POINT('Origin',(48.15,-19.,-5.7));
#1889=CARTESIAN_POINT('',(50.65,-19.25,-5.7));
#1890=CARTESIAN_POINT('',(50.65,-19.,-5.7));
#1891=CARTESIAN_POINT('',(52.65,-19.25,-5.7));
#1892=CARTESIAN_POINT('Origin',(51.65,-19.25,-5.7));
#1893=CARTESIAN_POINT('',(52.65,-19.,-5.7));
#1894=CARTESIAN_POINT('',(52.65,-20.25,-5.7));
#1895=CARTESIAN_POINT('',(48.9543314456535,-14.5724667222557,-5.7));
#1896=CARTESIAN_POINT('Origin',(48.15,-19.,-5.7));
#1897=CARTESIAN_POINT('',(48.2320302485989,-14.0223032849819,-5.7));
#1898=CARTESIAN_POINT('Origin',(49.1330717669099,-13.5885704383126,-5.7));
#1899=CARTESIAN_POINT('',(42.15,-10.2,-5.7));
#1900=CARTESIAN_POINT('Origin',(42.15,-16.95,-5.7));
#1901=CARTESIAN_POINT('',(42.1101809072361,-10.2,-5.7));
#1902=CARTESIAN_POINT('',(3.00000000000001,-10.2,-5.7));
#1903=CARTESIAN_POINT('',(41.1101809072361,-9.2,-5.7));
#1904=CARTESIAN_POINT('Origin',(42.1101809072361,-9.2,-5.7));
#1905=CARTESIAN_POINT('',(41.1101809072361,7.88069688129655,-5.7));
#1906=CARTESIAN_POINT('',(41.1101809072361,9.88069688129655,-5.7));
#1907=CARTESIAN_POINT('',(41.0995925566016,61.8812851165792,-5.7));
#1908=CARTESIAN_POINT('',(41.1101809072361,7.88069688129655,-5.7));
#1909=CARTESIAN_POINT('',(38.0995926142717,64.8806968812964,-5.7));
#1910=CARTESIAN_POINT('Origin',(38.0995926142718,61.8806968812964,-5.7));
#1911=CARTESIAN_POINT('',(30.3,64.8806968812963,-5.7));
#1912=CARTESIAN_POINT('',(36.5995926142718,64.8806968812964,-5.7));
#1913=CARTESIAN_POINT('',(29.3,65.8806968812963,-5.7));
#1914=CARTESIAN_POINT('Origin',(30.3,65.8806968812963,-5.7));
#1915=CARTESIAN_POINT('',(29.3,77.15,-5.7));
#1916=CARTESIAN_POINT('',(29.3,75.15,-5.7));
#1917=CARTESIAN_POINT('',(28.05,78.4,-5.7));
#1918=CARTESIAN_POINT('Origin',(28.05,77.15,-5.7));
#1919=CARTESIAN_POINT('',(10.05,78.4,-5.7));
#1920=CARTESIAN_POINT('',(28.05,78.4,-5.7));
#1921=CARTESIAN_POINT('',(8.80000000000002,77.15,-5.7));
#1922=CARTESIAN_POINT('Origin',(10.05,77.15,-5.7));
#1923=CARTESIAN_POINT('',(8.79999999999997,65.8806968812964,-5.7));
#1924=CARTESIAN_POINT('',(8.8,77.15,-5.7));
#1925=CARTESIAN_POINT('',(7.79999999999997,64.8806968812964,-5.7));
#1926=CARTESIAN_POINT('Origin',(7.79999999999997,65.8806968812964,-5.7));
#1927=CARTESIAN_POINT('',(4.09959261427177,64.8806968812964,-5.7));
#1928=CARTESIAN_POINT('',(36.5995926142718,64.8806968812964,-5.7));
#1929=CARTESIAN_POINT('',(1.09959267194188,61.8812851165792,-5.7));
#1930=CARTESIAN_POINT('Origin',(4.09959261427176,61.8806968812964,-5.7));
#1931=CARTESIAN_POINT('',(1.08900432130756,7.88069688129656,-5.7));
#1932=CARTESIAN_POINT('',(1.10018079189575,64.8806968812964,-5.7));
#1933=CARTESIAN_POINT('',(1.08900432130756,-9.76747926152427,-5.7));
#1934=CARTESIAN_POINT('',(1.08900432130756,9.88069688129656,-5.7));
#1935=CARTESIAN_POINT('',(0.464616666945299,-10.694256131005,-5.7));
#1936=CARTESIAN_POINT('Origin',(0.0890043213075636,-9.76747926152427,-5.7));
#1937=CARTESIAN_POINT('',(-3.74999999999999,-16.95,-5.7));
#1938=CARTESIAN_POINT('Origin',(3.00000000000001,-16.95,-5.7));
#1939=CARTESIAN_POINT('',(-3.74999999999999,-19.25,-5.7));
#1940=CARTESIAN_POINT('',(-3.74999999999999,-30.5129401626757,-5.7));
#1941=CARTESIAN_POINT('',(-1.74999999999999,-19.25,-5.7));
#1942=CARTESIAN_POINT('Origin',(-2.74999999999999,-19.25,-5.7));
#1943=CARTESIAN_POINT('',(-1.74999999999999,-16.95,-5.7));
#1944=CARTESIAN_POINT('',(-1.74999999999999,-32.4500000000004,-5.7));
#1945=CARTESIAN_POINT('',(3.00000000000001,-12.2,-5.7));
#1946=CARTESIAN_POINT('Origin',(3.00000000000001,-16.95,-5.7));
#1947=CARTESIAN_POINT('',(3.00000000000001,-12.2,-5.7));
#1948=CARTESIAN_POINT('',(39.1097887119266,6.88069688129655,-5.7));
#1949=CARTESIAN_POINT('Origin',(38.1097887119266,6.88069688129656,-5.7));
#1950=CARTESIAN_POINT('',(39.1097887119266,-9.2,-5.7));
#1951=CARTESIAN_POINT('',(39.1097887119266,-48.0000007152557,-5.7));
#1952=CARTESIAN_POINT('',(38.1097887119266,-10.2,-5.7));
#1953=CARTESIAN_POINT('Origin',(38.1097887119266,-9.2,-5.7));
#1954=CARTESIAN_POINT('',(4.08939651661706,-10.2,-5.7));
#1955=CARTESIAN_POINT('',(3.00000000000001,-10.2,-5.7));
#1956=CARTESIAN_POINT('',(3.08939651661706,-9.2,-5.7));
#1957=CARTESIAN_POINT('Origin',(4.08939651661706,-9.2,-5.7));
#1958=CARTESIAN_POINT('',(3.08939651661706,6.88069688129655,-5.7));
#1959=CARTESIAN_POINT('',(3.08939651661706,-48.0000007152557,-5.7));
#1960=CARTESIAN_POINT('Origin',(4.08939651661706,6.88069688129656,-5.7));
#1961=CARTESIAN_POINT('',(3.08959263349518,10.8808929597242,-5.7));
#1962=CARTESIAN_POINT('Origin',(4.08959261427181,10.8806968812966,-5.7));
#1963=CARTESIAN_POINT('',(3.09959263349513,61.8808929597239,-5.7));
#1964=CARTESIAN_POINT('',(3.09978867347975,62.8806968812964,-5.7));
#1965=CARTESIAN_POINT('',(4.09959261427176,62.8806968812962,-5.7));
#1966=CARTESIAN_POINT('Origin',(4.09959261427176,61.8806968812962,-5.7));
#1967=CARTESIAN_POINT('',(38.0995926142718,62.8806968812964,-5.7));
#1968=CARTESIAN_POINT('',(36.5995926142718,62.8806968812964,-5.7));
#1969=CARTESIAN_POINT('',(39.0995925950484,61.880892959724,-5.7));
#1970=CARTESIAN_POINT('Origin',(38.0995926142718,61.8806968812964,-5.7));
#1971=CARTESIAN_POINT('',(39.1095925950484,10.8808929597241,-5.7));
#1972=CARTESIAN_POINT('',(39.1097887119266,9.88069688129655,-5.7));
#1973=CARTESIAN_POINT('Origin',(38.1095926142718,10.8806968812965,-5.7));
#1974=CARTESIAN_POINT('',(11.8,76.4,-5.7));
#1975=CARTESIAN_POINT('',(26.3,76.4,-5.7));
#1976=CARTESIAN_POINT('',(27.3,76.4,-5.7));
#1977=CARTESIAN_POINT('',(27.3,75.4,-5.7));
#1978=CARTESIAN_POINT('Origin',(26.3,75.4,-5.7));
#1979=CARTESIAN_POINT('',(27.3,65.8806968812964,-5.7));
#1980=CARTESIAN_POINT('',(27.3,75.15,-5.7));
#1981=CARTESIAN_POINT('',(26.3,64.8806968812964,-5.7));
#1982=CARTESIAN_POINT('Origin',(26.3,65.8806968812964,-5.7));
#1983=CARTESIAN_POINT('',(11.8,64.8806968812964,-5.7));
#1984=CARTESIAN_POINT('',(36.5995926142718,64.8806968812964,-5.7));
#1985=CARTESIAN_POINT('',(10.8,65.8806968812964,-5.7));
#1986=CARTESIAN_POINT('Origin',(11.8,65.8806968812964,-5.7));
#1987=CARTESIAN_POINT('',(10.8,75.4,-5.7));
#1988=CARTESIAN_POINT('',(10.8,76.4,-5.7));
#1989=CARTESIAN_POINT('Origin',(11.8,75.4,-5.7));
#1990=CARTESIAN_POINT('Origin',(24.45,29.075,-8.7));
#1991=CARTESIAN_POINT('',(3.00000000000001,-12.2,-8.7));
#1992=CARTESIAN_POINT('',(3.00000000000001,-12.2,-8.7));
#1993=CARTESIAN_POINT('',(-1.74999999999999,-16.95,-8.7));
#1994=CARTESIAN_POINT('Origin',(3.00000000000001,-16.95,-8.7));
#1995=CARTESIAN_POINT('',(-1.74999999999999,-19.25,-8.7));
#1996=CARTESIAN_POINT('',(-1.74999999999999,-32.4500000000004,-8.7));
#1997=CARTESIAN_POINT('',(-3.74999999999999,-19.25,-8.7));
#1998=CARTESIAN_POINT('Origin',(-2.74999999999999,-19.25,-8.7));
#1999=CARTESIAN_POINT('',(-3.74999999999999,-16.95,-8.7));
#2000=CARTESIAN_POINT('',(-3.74999999999999,-30.5129401626757,-8.7));
#2001=CARTESIAN_POINT('',(0.464616666945299,-10.694256131005,-8.7));
#2002=CARTESIAN_POINT('Origin',(3.00000000000001,-16.95,-8.7));
#2003=CARTESIAN_POINT('',(1.08900432130756,-9.76747926152427,-8.7));
#2004=CARTESIAN_POINT('Origin',(0.0890043213075636,-9.76747926152427,-8.7));
#2005=CARTESIAN_POINT('',(1.08900432130756,7.88069688129656,-8.7));
#2006=CARTESIAN_POINT('',(1.08900432130756,9.88069688129656,-8.7));
#2007=CARTESIAN_POINT('',(1.09959267194188,61.8812851165792,-8.7));
#2008=CARTESIAN_POINT('',(1.10018079189575,64.8806968812964,-8.7));
#2009=CARTESIAN_POINT('',(4.09959261427177,64.8806968812964,-8.7));
#2010=CARTESIAN_POINT('Origin',(4.09959261427176,61.8806968812964,-8.7));
#2011=CARTESIAN_POINT('',(7.79999999999997,64.8806968812964,-8.7));
#2012=CARTESIAN_POINT('',(36.5995926142718,64.8806968812964,-8.7));
#2013=CARTESIAN_POINT('',(8.79999999999997,65.8806968812964,-8.7));
#2014=CARTESIAN_POINT('Origin',(7.79999999999997,65.8806968812964,-8.7));
#2015=CARTESIAN_POINT('',(8.80000000000001,77.15,-8.7));
#2016=CARTESIAN_POINT('',(8.8,77.15,-8.7));
#2017=CARTESIAN_POINT('',(10.05,78.4,-8.7));
#2018=CARTESIAN_POINT('Origin',(10.05,77.15,-8.7));
#2019=CARTESIAN_POINT('',(28.05,78.4,-8.7));
#2020=CARTESIAN_POINT('',(28.05,78.4,-8.7));
#2021=CARTESIAN_POINT('',(29.3,77.15,-8.7));
#2022=CARTESIAN_POINT('Origin',(28.05,77.15,-8.7));
#2023=CARTESIAN_POINT('',(29.3,65.8806968812963,-8.7));
#2024=CARTESIAN_POINT('',(29.3,75.15,-8.7));
#2025=CARTESIAN_POINT('',(30.3,64.8806968812963,-8.7));
#2026=CARTESIAN_POINT('Origin',(30.3,65.8806968812963,-8.7));
#2027=CARTESIAN_POINT('',(38.0995926142717,64.8806968812964,-8.7));
#2028=CARTESIAN_POINT('',(36.5995926142718,64.8806968812964,-8.7));
#2029=CARTESIAN_POINT('',(41.0995925566016,61.8812851165792,-8.7));
#2030=CARTESIAN_POINT('Origin',(38.0995926142718,61.8806968812964,-8.7));
#2031=CARTESIAN_POINT('',(41.1101809072361,7.88069688129655,-8.7));
#2032=CARTESIAN_POINT('',(41.1101809072361,7.88069688129655,-8.7));
#2033=CARTESIAN_POINT('',(41.1101809072361,-9.2,-8.7));
#2034=CARTESIAN_POINT('',(41.1101809072361,9.88069688129655,-8.7));
#2035=CARTESIAN_POINT('',(42.1101809072361,-10.2,-8.7));
#2036=CARTESIAN_POINT('Origin',(42.1101809072361,-9.2,-8.7));
#2037=CARTESIAN_POINT('',(42.15,-10.2,-8.7));
#2038=CARTESIAN_POINT('',(3.00000000000001,-10.2,-8.7));
#2039=CARTESIAN_POINT('',(48.2320302485989,-14.0223032849819,-8.7));
#2040=CARTESIAN_POINT('Origin',(42.15,-16.95,-8.7));
#2041=CARTESIAN_POINT('',(48.9543314456535,-14.5724667222557,-8.7));
#2042=CARTESIAN_POINT('Origin',(49.1330717669099,-13.5885704383126,-8.7));
#2043=CARTESIAN_POINT('',(52.65,-19.,-8.7));
#2044=CARTESIAN_POINT('Origin',(48.15,-19.,-8.7));
#2045=CARTESIAN_POINT('',(52.65,-19.25,-8.7));
#2046=CARTESIAN_POINT('',(52.65,-20.25,-8.7));
#2047=CARTESIAN_POINT('',(50.65,-19.25,-8.7));
#2048=CARTESIAN_POINT('Origin',(51.65,-19.25,-8.7));
#2049=CARTESIAN_POINT('',(50.65,-19.,-8.7));
#2050=CARTESIAN_POINT('',(50.65,-19.,-8.7));
#2051=CARTESIAN_POINT('Origin',(48.15,-19.,-8.7));
#2052=CARTESIAN_POINT('',(10.8,75.4,-8.7));
#2053=CARTESIAN_POINT('',(11.8,76.4,-8.7));
#2054=CARTESIAN_POINT('Origin',(11.8,75.4,-8.7));
#2055=CARTESIAN_POINT('',(10.8,65.8806968812964,-8.7));
#2056=CARTESIAN_POINT('',(10.8,76.4,-8.7));
#2057=CARTESIAN_POINT('',(11.8,64.8806968812964,-8.7));
#2058=CARTESIAN_POINT('Origin',(11.8,65.8806968812964,-8.7));
#2059=CARTESIAN_POINT('',(26.3,64.8806968812964,-8.7));
#2060=CARTESIAN_POINT('',(36.5995926142718,64.8806968812964,-8.7));
#2061=CARTESIAN_POINT('',(27.3,65.8806968812964,-8.7));
#2062=CARTESIAN_POINT('Origin',(26.3,65.8806968812964,-8.7));
#2063=CARTESIAN_POINT('',(27.3,75.4,-8.7));
#2064=CARTESIAN_POINT('',(27.3,75.15,-8.7));
#2065=CARTESIAN_POINT('',(26.3,76.4,-8.7));
#2066=CARTESIAN_POINT('Origin',(26.3,75.4,-8.7));
#2067=CARTESIAN_POINT('',(27.3,76.4,-8.7));
#2068=CARTESIAN_POINT('',(39.1095925950484,10.8808929597241,-8.7));
#2069=CARTESIAN_POINT('Origin',(38.1095926142718,10.8806968812965,-8.7));
#2070=CARTESIAN_POINT('',(39.0995925950484,61.880892959724,-8.7));
#2071=CARTESIAN_POINT('',(39.1097887119266,9.88069688129655,-8.7));
#2072=CARTESIAN_POINT('',(38.0995926142718,62.8806968812964,-8.7));
#2073=CARTESIAN_POINT('Origin',(38.0995926142718,61.8806968812964,-8.7));
#2074=CARTESIAN_POINT('',(4.09959261427176,62.8806968812962,-8.7));
#2075=CARTESIAN_POINT('',(36.5995926142718,62.8806968812964,-8.7));
#2076=CARTESIAN_POINT('',(3.09959263349513,61.8808929597239,-8.7));
#2077=CARTESIAN_POINT('Origin',(4.09959261427176,61.8806968812962,-8.7));
#2078=CARTESIAN_POINT('',(3.08959263349518,10.8808929597242,-8.7));
#2079=CARTESIAN_POINT('',(3.09978867347975,62.8806968812964,-8.7));
#2080=CARTESIAN_POINT('Origin',(4.08959261427181,10.8806968812966,-8.7));
#2081=CARTESIAN_POINT('',(39.1097887119266,6.88069688129655,-8.7));
#2082=CARTESIAN_POINT('Origin',(38.1097887119266,6.88069688129656,-8.7));
#2083=CARTESIAN_POINT('',(3.08939651661706,6.88069688129655,-8.7));
#2084=CARTESIAN_POINT('Origin',(4.08939651661706,6.88069688129656,-8.7));
#2085=CARTESIAN_POINT('',(3.08939651661706,-9.2,-8.7));
#2086=CARTESIAN_POINT('',(3.08939651661706,-48.0000007152557,-8.7));
#2087=CARTESIAN_POINT('',(4.08939651661706,-10.2,-8.7));
#2088=CARTESIAN_POINT('Origin',(4.08939651661706,-9.2,-8.7));
#2089=CARTESIAN_POINT('',(38.1097887119266,-10.2,-8.7));
#2090=CARTESIAN_POINT('',(3.00000000000001,-10.2,-8.7));
#2091=CARTESIAN_POINT('',(39.1097887119266,-9.2,-8.7));
#2092=CARTESIAN_POINT('Origin',(38.1097887119266,-9.2,-8.7));
#2093=CARTESIAN_POINT('',(39.1097887119266,-48.0000007152557,-8.7));
#2094=CARTESIAN_POINT('Origin',(51.65,-19.25,-8.7));
#2095=CARTESIAN_POINT('',(50.65,-19.25,-8.7));
#2096=CARTESIAN_POINT('',(52.65,-19.25,-8.7));
#2097=CARTESIAN_POINT('Origin',(50.65,-19.,-8.7));
#2098=CARTESIAN_POINT('',(50.65,-19.,-8.7));
#2099=CARTESIAN_POINT('Origin',(-2.74999999999999,-19.25,-8.7));
#2100=CARTESIAN_POINT('',(-3.74999999999999,-19.25,-8.7));
#2101=CARTESIAN_POINT('',(-1.74999999999999,-19.25,-8.7));
#2102=CARTESIAN_POINT('Origin',(38.0995926142718,61.8806968812964,-8.7));
#2103=CARTESIAN_POINT('',(41.0995925566016,61.8812851165792,-8.7));
#2104=CARTESIAN_POINT('',(38.0995926142717,64.8806968812964,-8.7));
#2105=CARTESIAN_POINT('Origin',(41.1101809072361,7.88069688129655,-8.7));
#2106=CARTESIAN_POINT('',(41.1101809072361,7.88069688129655,-8.7));
#2107=CARTESIAN_POINT('Origin',(4.09959261427176,61.8806968812964,-8.7));
#2108=CARTESIAN_POINT('',(4.09959261427176,64.8806968812964,-8.7));
#2109=CARTESIAN_POINT('',(1.09959267194188,61.8812851165792,-8.7));
#2110=CARTESIAN_POINT('Origin',(1.10018079189575,64.8806968812964,-8.7));
#2111=CARTESIAN_POINT('',(1.08900432130756,7.88069688129656,-8.7));
#2112=CARTESIAN_POINT('Origin',(30.3,65.8806968812963,-8.7));
#2113=CARTESIAN_POINT('',(29.3,65.8806968812963,-8.7));
#2114=CARTESIAN_POINT('',(30.3,64.8806968812963,-8.7));
#2115=CARTESIAN_POINT('Origin',(29.3,64.8806968812964,-8.7));
#2116=CARTESIAN_POINT('',(29.3,77.15,-8.7));
#2117=CARTESIAN_POINT('Origin',(7.79999999999997,65.8806968812964,-8.7));
#2118=CARTESIAN_POINT('',(7.79999999999997,64.8806968812964,-8.7));
#2119=CARTESIAN_POINT('',(8.79999999999997,65.8806968812964,-8.7));
#2120=CARTESIAN_POINT('Origin',(8.79999999999996,64.8806968812964,-8.7));
#2121=CARTESIAN_POINT('Origin',(26.3,65.8806968812964,-8.7));
#2122=CARTESIAN_POINT('',(26.3,64.8806968812964,-8.7));
#2123=CARTESIAN_POINT('',(27.3,65.8806968812964,-8.7));
#2124=CARTESIAN_POINT('Origin',(27.3,64.8806968812964,-8.7));
#2125=CARTESIAN_POINT('',(11.8,64.8806968812964,-8.7));
#2126=CARTESIAN_POINT('Origin',(11.8,65.8806968812964,-8.7));
#2127=CARTESIAN_POINT('',(10.8,65.8806968812964,-8.7));
#2128=CARTESIAN_POINT('Origin',(10.8,64.8806968812964,-8.7));
#2129=CARTESIAN_POINT('',(10.8,75.4,-8.7));
#2130=CARTESIAN_POINT('Origin',(11.8,75.4,-8.7));
#2131=CARTESIAN_POINT('',(11.8,76.4,-8.7));
#2132=CARTESIAN_POINT('Origin',(10.8,76.4,-8.7));
#2133=CARTESIAN_POINT('',(26.3,76.4,-8.7));
#2134=CARTESIAN_POINT('Origin',(26.3,75.4,-8.7));
#2135=CARTESIAN_POINT('',(27.3,75.4,-8.7));
#2136=CARTESIAN_POINT('Origin',(27.3,76.4,-8.7));
#2137=CARTESIAN_POINT('Origin',(0.0890043213075636,-9.76747926152427,-8.7));
#2138=CARTESIAN_POINT('',(0.464616666945298,-10.694256131005,-8.7));
#2139=CARTESIAN_POINT('',(1.08900432130756,-9.76747926152427,-8.7));
#2140=CARTESIAN_POINT('Origin',(3.00000000000001,-16.95,-8.7));
#2141=CARTESIAN_POINT('',(-3.74999999999999,-16.95,-8.7));
#2142=CARTESIAN_POINT('Origin',(49.1330717669099,-13.5885704383126,-8.7));
#2143=CARTESIAN_POINT('',(48.2320302485989,-14.0223032849819,-8.7));
#2144=CARTESIAN_POINT('',(48.9543314456535,-14.5724667222557,-8.7));
#2145=CARTESIAN_POINT('Origin',(42.15,-16.95,-8.7));
#2146=CARTESIAN_POINT('',(42.15,-10.2,-8.7));
#2147=CARTESIAN_POINT('Origin',(42.1101809072361,-9.2,-8.7));
#2148=CARTESIAN_POINT('',(41.1101809072361,-9.2,-8.7));
#2149=CARTESIAN_POINT('',(42.1101809072361,-10.2,-8.7));
#2150=CARTESIAN_POINT('Origin',(41.1101809072361,-10.2,-8.7));
#2151=CARTESIAN_POINT('Origin',(4.08939651661706,-9.2,-8.7));
#2152=CARTESIAN_POINT('',(3.08939651661706,-9.2,-8.7));
#2153=CARTESIAN_POINT('',(4.08939651661706,-10.2,-8.7));
#2154=CARTESIAN_POINT('Origin',(3.08939651661706,-10.2,-8.7));
#2155=CARTESIAN_POINT('',(3.08939651661706,6.88069688129656,-8.7));
#2156=CARTESIAN_POINT('Origin',(38.1097887119266,-9.2,-8.7));
#2157=CARTESIAN_POINT('',(38.1097887119266,-10.2,-8.7));
#2158=CARTESIAN_POINT('',(39.1097887119266,-9.2,-8.7));
#2159=CARTESIAN_POINT('Origin',(39.1097887119266,-10.2,-8.7));
#2160=CARTESIAN_POINT('Origin',(38.1097887119266,6.88069688129656,-8.7));
#2161=CARTESIAN_POINT('',(39.1097887119266,6.88069688129656,-8.7));
#2162=CARTESIAN_POINT('Origin',(39.1097887119266,7.88069688129656,-8.7));
#2163=CARTESIAN_POINT('Origin',(4.08939651661706,6.88069688129656,-8.7));
#2164=CARTESIAN_POINT('Origin',(4.08959261427181,10.8806968812966,-8.7));
#2165=CARTESIAN_POINT('',(3.08959263349518,10.8808929597242,-8.7));
#2166=CARTESIAN_POINT('Origin',(3.08939651661706,9.88069688129657,-8.7));
#2167=CARTESIAN_POINT('',(3.09959263349513,61.8808929597239,-8.7));
#2168=CARTESIAN_POINT('Origin',(38.1095926142718,10.8806968812965,-8.7));
#2169=CARTESIAN_POINT('',(39.1095925950484,10.8808929597241,-8.7));
#2170=CARTESIAN_POINT('Origin',(38.0995926142718,61.8806968812964,-8.7));
#2171=CARTESIAN_POINT('',(39.0995925950484,61.880892959724,-8.7));
#2172=CARTESIAN_POINT('',(38.0995926142718,62.8806968812964,-8.7));
#2173=CARTESIAN_POINT('Origin',(39.0993965550638,62.8806968812964,-8.7));
#2174=CARTESIAN_POINT('Origin',(4.09959261427176,61.8806968812962,-8.7));
#2175=CARTESIAN_POINT('',(4.09959261427176,62.8806968812962,-8.7));
#2176=CARTESIAN_POINT('Origin',(3.09978867347976,62.8806968812962,-8.7));
#2177=CARTESIAN_POINT('Origin',(41.0990044366478,64.8806968812964,-8.7));
#2178=CARTESIAN_POINT('Origin',(42.15,-10.2,-8.7));
#2179=CARTESIAN_POINT('Origin',(48.15,-19.,-8.7));
#2180=CARTESIAN_POINT('',(52.65,-19.,-8.7));
#2181=CARTESIAN_POINT('Origin',(52.65,-20.25,-8.7));
#2182=CARTESIAN_POINT('Origin',(48.15,-19.,-8.7));
#2183=CARTESIAN_POINT('Origin',(3.00000000000001,-12.2,-8.7));
#2184=CARTESIAN_POINT('',(3.00000000000001,-12.2,-8.7));
#2185=CARTESIAN_POINT('Origin',(3.00000000000001,-16.95,-8.7));
#2186=CARTESIAN_POINT('',(-1.74999999999999,-16.95,-8.7));
#2187=CARTESIAN_POINT('Origin',(-1.74999999999999,-20.25,-8.7));
#2188=CARTESIAN_POINT('Origin',(-3.74999999999999,-16.95,-8.7));
#2189=CARTESIAN_POINT('Origin',(1.08900432130756,7.88069688129656,-8.7));
#2190=CARTESIAN_POINT('Origin',(8.8,77.15,-8.7));
#2191=CARTESIAN_POINT('',(8.80000000000001,77.15,-8.7));
#2192=CARTESIAN_POINT('Origin',(10.05,77.15,-8.7));
#2193=CARTESIAN_POINT('',(10.05,78.4,-8.7));
#2194=CARTESIAN_POINT('Origin',(28.05,78.4,-8.7));
#2195=CARTESIAN_POINT('',(28.05,78.4,-8.7));
#2196=CARTESIAN_POINT('Origin',(28.05,77.15,-8.7));
#2197=UNCERTAINTY_MEASURE_WITH_UNIT(LENGTH_MEASURE(0.01),#2201,
'DISTANCE_ACCURACY_VALUE',
'Maximum model space distance between geometric entities at asserted c
onnectivities');
#2198=UNCERTAINTY_MEASURE_WITH_UNIT(LENGTH_MEASURE(0.01),#2201,
'DISTANCE_ACCURACY_VALUE',
'Maximum model space distance between geometric entities at asserted c
onnectivities');
#2199=(
GEOMETRIC_REPRESENTATION_CONTEXT(3)
GLOBAL_UNCERTAINTY_ASSIGNED_CONTEXT((#2197))
GLOBAL_UNIT_ASSIGNED_CONTEXT((#2201,#2203,#2204))
REPRESENTATION_CONTEXT('','3D')
);
#2200=(
GEOMETRIC_REPRESENTATION_CONTEXT(3)
GLOBAL_UNCERTAINTY_ASSIGNED_CONTEXT((#2198))
GLOBAL_UNIT_ASSIGNED_CONTEXT((#2201,#2203,#2204))
REPRESENTATION_CONTEXT('','3D')
);
#2201=(
LENGTH_UNIT()
NAMED_UNIT(*)
SI_UNIT(.MILLI.,.METRE.)
);
#2202=(
LENGTH_UNIT()
NAMED_UNIT(*)
SI_UNIT($,.METRE.)
);
#2203=(
NAMED_UNIT(*)
PLANE_ANGLE_UNIT()
SI_UNIT($,.RADIAN.)
);
#2204=(
NAMED_UNIT(*)
SI_UNIT($,.STERADIAN.)
SOLID_ANGLE_UNIT()
);
#2205=SHAPE_DEFINITION_REPRESENTATION(#2206,#2207);
#2206=PRODUCT_DEFINITION_SHAPE('',$,#2209);
#2207=SHAPE_REPRESENTATION('',(#1297),#2199);
#2208=PRODUCT_DEFINITION_CONTEXT('part definition',#2213,'design');
#2209=PRODUCT_DEFINITION('Lipo Bracket','Lipo Bracket',#2210,#2208);
#2210=PRODUCT_DEFINITION_FORMATION('',$,#2215);
#2211=PRODUCT_RELATED_PRODUCT_CATEGORY('Lipo Bracket','Lipo Bracket',(#2215));
#2212=APPLICATION_PROTOCOL_DEFINITION('international standard',
'automotive_design',2009,#2213);
#2213=APPLICATION_CONTEXT(
'Core Data for Automotive Mechanical Design Process');
#2214=PRODUCT_CONTEXT('part definition',#2213,'mechanical');
#2215=PRODUCT('Lipo Bracket','Lipo Bracket',$,(#2214));
#2216=PRESENTATION_STYLE_ASSIGNMENT((#2218));
#2217=PRESENTATION_STYLE_ASSIGNMENT((#2219));
#2218=SURFACE_STYLE_USAGE(.BOTH.,#2220);
#2219=SURFACE_STYLE_USAGE(.BOTH.,#2221);
#2220=SURFACE_SIDE_STYLE('',(#2222));
#2221=SURFACE_SIDE_STYLE('',(#2223));
#2222=SURFACE_STYLE_FILL_AREA(#2224);
#2223=SURFACE_STYLE_FILL_AREA(#2225);
#2224=FILL_AREA_STYLE('Steel - Satin',(#2226));
#2225=FILL_AREA_STYLE('Acrylic (Clear)',(#2227));
#2226=FILL_AREA_STYLE_COLOUR('Steel - Satin',#2228);
#2227=FILL_AREA_STYLE_COLOUR('Acrylic (Clear)',#2229);
#2228=COLOUR_RGB('Steel - Satin',0.627450980392157,0.627450980392157,0.627450980392157);
#2229=COLOUR_RGB('Acrylic (Clear)',0.964705882352941,0.964705882352941,
0.952941176470588);
ENDSEC;
END-ISO-10303-21;
